<svg width="52" height="80" viewBox="0 0 52 80" fill="none" xmlns="http://www.w3.org/2000/svg">
<mask id="mask0_85_198" style="mask-type:luminance" maskUnits="userSpaceOnUse" x="0" y="0" width="40" height="80">
<path d="M0.464966 0.908447H39.9461V79.7592H0.464966V0.908447Z" fill="white"/>
</mask>
<g mask="url(#mask0_85_198)">
<path d="M20.1929 74.2097H6.10169V17.8425H34.2853V46.0261C34.2853 46.2112 34.303 46.3937 34.3385 46.5763C34.3753 46.7575 34.4285 46.9337 34.4995 47.1048C34.5705 47.2759 34.6567 47.4382 34.7593 47.5915C34.862 47.7462 34.9799 47.8881 35.1105 48.0187C35.241 48.1493 35.383 48.2671 35.5376 48.3698C35.691 48.4725 35.8532 48.5587 36.0243 48.6297C36.1955 48.7006 36.3717 48.7539 36.5529 48.7906C36.7354 48.8261 36.918 48.8439 37.103 48.8439C37.2881 48.8439 37.4719 48.8261 37.6531 48.7906C37.8344 48.7539 38.0106 48.7006 38.1817 48.6297C38.3528 48.5587 38.5151 48.4725 38.6684 48.3698C38.8231 48.2671 38.965 48.1493 39.0956 48.0187C39.2274 47.8881 39.344 47.7462 39.4467 47.5915C39.5494 47.4382 39.6368 47.2759 39.7065 47.1048C39.7775 46.9337 39.8307 46.7575 39.8675 46.5763C39.903 46.3937 39.922 46.2112 39.922 46.0261V17.8425C39.922 17.6575 39.9131 17.4737 39.8941 17.2899C39.8764 17.1061 39.8498 16.9236 39.813 16.7423C39.7775 16.5611 39.7319 16.3823 39.6786 16.2062C39.6254 16.03 39.5633 15.8563 39.4923 15.6852C39.4213 15.5153 39.3428 15.348 39.2566 15.1858C39.1691 15.0223 39.074 14.8638 38.9714 14.7105C38.8687 14.5571 38.7597 14.4088 38.6418 14.2668C38.5252 14.1236 38.401 13.9867 38.2704 13.8561C38.1399 13.7256 38.003 13.6026 37.861 13.4848C37.7178 13.3681 37.5695 13.2579 37.4161 13.1552C37.2627 13.0525 37.1043 12.9587 36.942 12.8713C36.7798 12.7838 36.6125 12.7052 36.4414 12.6342C36.2715 12.5645 36.0979 12.5024 35.9217 12.4479C35.7442 12.3947 35.5655 12.3503 35.3842 12.3136C35.203 12.2781 35.0205 12.2514 34.8379 12.2324C34.6541 12.2147 34.4691 12.2058 34.2853 12.2058H31.4663V6.56909C31.4663 6.38403 31.4574 6.20024 31.4397 6.01645C31.4207 5.83266 31.394 5.65013 31.3586 5.46887C31.3218 5.28762 31.2774 5.1089 31.2242 4.93271C31.1697 4.75652 31.1076 4.58287 31.0379 4.41175C30.9669 4.2419 30.8883 4.07459 30.8008 3.91234C30.7134 3.74883 30.6196 3.59039 30.5169 3.43702C30.4142 3.28365 30.304 3.13535 30.1874 2.99338C30.0695 2.85015 29.9465 2.71326 29.816 2.5827C29.6854 2.45215 29.5485 2.32919 29.4053 2.21131C29.2633 2.0947 29.115 1.98443 28.9617 1.88176C28.8083 1.77909 28.6498 1.68529 28.4863 1.59783C28.3241 1.51037 28.158 1.43178 27.9869 1.3608C27.8158 1.29108 27.6421 1.22898 27.466 1.17447C27.2898 1.12124 27.1111 1.07687 26.9298 1.04011C26.7485 1.00462 26.566 0.978004 26.3822 0.958991C26.1984 0.941246 26.0146 0.932373 25.8296 0.932373H14.5561C14.3723 0.932373 14.1873 0.941246 14.0035 0.958991C13.8197 0.978004 13.6372 1.00462 13.4572 1.04011C13.2759 1.07687 13.0972 1.12124 12.9197 1.17447C12.7436 1.22898 12.5699 1.29108 12.3988 1.3608C12.2289 1.43178 12.0616 1.51037 11.8994 1.59783C11.7359 1.68529 11.5787 1.77909 11.4253 1.88176C11.2707 1.98443 11.1237 2.0947 10.9804 2.21131C10.8372 2.32919 10.7016 2.45215 10.571 2.5827C10.4405 2.71326 10.3162 2.85015 10.1996 2.99338C10.0817 3.13535 9.97273 3.28365 9.87006 3.43702C9.76739 3.59039 9.67233 3.74883 9.58487 3.91234C9.49868 4.07459 9.41882 4.2419 9.34911 4.41175C9.27813 4.58287 9.21602 4.75652 9.16278 4.93271C9.10828 5.1089 9.06391 5.28762 9.02842 5.46887C8.99166 5.65013 8.96504 5.83266 8.9473 6.01645C8.92829 6.20024 8.91941 6.38403 8.91941 6.56909V12.2058H6.10169C5.91663 12.2058 5.73283 12.2147 5.54904 12.2324C5.36525 12.2514 5.18273 12.2781 5.00147 12.3136C4.82021 12.3503 4.64149 12.3947 4.4653 12.4479C4.28785 12.5024 4.11419 12.5645 3.94434 12.6342C3.77323 12.7052 3.60718 12.7838 3.44367 12.8713C3.28142 12.9587 3.12298 13.0525 2.96961 13.1552C2.81624 13.2579 2.66794 13.3681 2.52598 13.4848C2.38274 13.6026 2.24585 13.7256 2.11529 13.8561C1.98474 13.9867 1.86052 14.1236 1.74391 14.2668C1.62729 14.4088 1.51702 14.5571 1.41435 14.7105C1.31168 14.8638 1.21661 15.0223 1.13042 15.1858C1.04296 15.348 0.964374 15.5153 0.893392 15.6852C0.82241 15.8563 0.760301 16.03 0.707065 16.2062C0.653828 16.3823 0.609465 16.5611 0.572706 16.7423C0.537215 16.9236 0.50933 17.1061 0.491584 17.2899C0.473839 17.4737 0.464966 17.6575 0.464966 17.8425V74.2097C0.464966 74.3948 0.473839 74.5786 0.491584 74.7624C0.50933 74.9462 0.537215 75.1287 0.572706 75.3087C0.609465 75.49 0.653828 75.6687 0.707065 75.8461C0.760301 76.0223 0.82241 76.196 0.893392 76.3671C0.964374 76.5369 1.04296 76.7043 1.13042 76.8665C1.21661 77.03 1.31168 77.1872 1.41435 77.3406C1.51702 77.4952 1.62729 77.6422 1.74391 77.7855C1.86052 77.9287 1.98474 78.0643 2.11529 78.1949C2.24585 78.3254 2.38274 78.4496 2.52598 78.5663C2.66794 78.6841 2.81624 78.7944 2.96961 78.8958C3.12298 78.9985 3.28142 79.0936 3.44367 79.181C3.60718 79.2672 3.77323 79.3471 3.94434 79.4168C4.11419 79.4878 4.28785 79.5499 4.4653 79.6031C4.64149 79.6576 4.82021 79.702 5.00147 79.7375C5.18273 79.7742 5.36525 79.8008 5.54904 79.8186C5.73283 79.8376 5.91663 79.8465 6.10169 79.8465H20.1929C20.3779 79.8465 20.5617 79.8287 20.743 79.792C20.9242 79.7565 21.1004 79.702 21.2715 79.6323C21.4426 79.5613 21.6049 79.4738 21.7583 79.3711C21.9129 79.2685 22.0549 79.1519 22.1854 79.0213C22.3172 78.8895 22.4339 78.7475 22.5365 78.5941C22.6392 78.4395 22.7267 78.2773 22.7964 78.1061C22.8674 77.935 22.9206 77.7588 22.9573 77.5776C22.9928 77.3963 23.0119 77.2125 23.0119 77.0275C23.0119 76.8424 22.9928 76.6599 22.9573 76.4786C22.9206 76.2961 22.8674 76.1199 22.7964 75.9488C22.7267 75.779 22.6392 75.6154 22.5365 75.4621C22.4339 75.3087 22.3172 75.1655 22.1854 75.0349C22.0549 74.9044 21.9129 74.7877 21.7583 74.6851C21.6049 74.5811 21.4426 74.4949 21.2715 74.424C21.1004 74.353 20.9242 74.2997 20.743 74.2643C20.5617 74.2275 20.3779 74.2097 20.1929 74.2097ZM14.5561 6.56909H25.8296V12.2058H14.5561V6.56909Z" fill="#830067"/>
</g>
<mask id="mask1_85_198" style="mask-type:luminance" maskUnits="userSpaceOnUse" x="22" y="54" width="30" height="26">
<path d="M22.7482 54.1804H51.0851V79.7592H22.7482V54.1804Z" fill="white"/>
</mask>
<g mask="url(#mask1_85_198)">
<path d="M42.7397 54.4807C42.2226 54.4845 41.7105 54.5339 41.2022 54.6315C40.6952 54.7291 40.1996 54.8711 39.7179 55.0587C39.2363 55.2463 38.7762 55.477 38.3363 55.7495C37.8965 56.022 37.4858 56.3313 37.103 56.6799C36.7202 56.3313 36.3095 56.022 35.8697 55.7495C35.4311 55.477 34.9697 55.2463 34.4881 55.0587C34.0064 54.8711 33.5121 54.7291 33.0038 54.6315C32.4955 54.5339 31.9834 54.4845 31.4663 54.4807C31.19 54.4807 30.9136 54.4947 30.6373 54.5225C30.3623 54.5492 30.0885 54.5897 29.8172 54.6442C29.546 54.6975 29.2773 54.7646 29.0123 54.8458C28.7474 54.9256 28.4863 55.0194 28.2303 55.1246C27.9755 55.2311 27.7245 55.349 27.4812 55.4795C27.2365 55.6101 26.9995 55.752 26.7688 55.9067C26.5394 56.0601 26.3163 56.2248 26.1021 56.401C25.8891 56.5759 25.6838 56.7623 25.4873 56.9575C25.2921 57.1539 25.1058 57.358 24.9309 57.5722C24.7547 57.7864 24.5899 58.0083 24.4365 58.2389C24.2819 58.4696 24.1399 58.7067 24.0094 58.95C23.8788 59.1947 23.761 59.4444 23.6545 59.7004C23.5493 59.9565 23.4555 60.2163 23.3756 60.4825C23.2945 60.7474 23.2273 61.0148 23.1741 61.2874C23.1196 61.5586 23.079 61.8324 23.0524 62.1075C23.0245 62.3825 23.0118 62.6588 23.0118 62.9364C23.0118 69.9826 29.4649 76.352 35.8355 79.536C36.2335 79.7376 36.6568 79.8377 37.103 79.8377C37.5504 79.8377 37.9725 79.7376 38.3718 79.536C44.7412 76.352 51.1954 69.9826 51.1954 62.9364C51.1954 62.6588 51.1815 62.3825 51.1549 62.1075C51.127 61.8324 51.0864 61.5586 51.0319 61.2874C50.9787 61.0148 50.9115 60.7474 50.8304 60.4825C50.7505 60.2163 50.6567 59.9565 50.5515 59.7004C50.4451 59.4444 50.3272 59.1947 50.1966 58.95C50.0661 58.7067 49.9241 58.4696 49.7695 58.2389C49.6161 58.0083 49.4513 57.7864 49.2764 57.5722C49.1002 57.358 48.9139 57.1539 48.7187 56.9575C48.5222 56.7623 48.3181 56.5759 48.1039 56.401C47.8897 56.2248 47.6679 56.0601 47.4372 55.9067C47.2065 55.752 46.9695 55.6101 46.7261 55.4795C46.4815 55.349 46.2318 55.2311 45.9757 55.1246C45.7197 55.0194 45.4599 54.9256 45.1937 54.8458C44.9288 54.7646 44.6613 54.6975 44.3901 54.6442C44.1175 54.5897 43.8438 54.5492 43.5687 54.5225C43.2936 54.4947 43.0173 54.4807 42.7397 54.4807ZM37.103 73.8157C32.7909 71.2781 28.6486 66.9101 28.6486 62.9364C28.6486 62.7514 28.6663 62.5676 28.7018 62.3863C28.7386 62.2051 28.7918 62.0289 28.8628 61.8578C28.9338 61.6866 29.0199 61.5244 29.1226 61.371C29.2253 61.2164 29.3432 61.0744 29.4737 60.9439C29.6043 60.812 29.7462 60.6954 29.9009 60.5928C30.0543 60.4901 30.2165 60.4026 30.3876 60.3329C30.5587 60.2619 30.7349 60.2087 30.9162 60.1719C31.0987 60.1364 31.2812 60.1174 31.4663 60.1174C31.6513 60.1174 31.8351 60.1364 32.0164 60.1719C32.1977 60.2087 32.3738 60.2619 32.545 60.3329C32.7161 60.4026 32.8783 60.4901 33.0317 60.5928C33.1863 60.6954 33.3283 60.812 33.4588 60.9439C33.5907 61.0744 33.7073 61.2164 33.81 61.371C33.9126 61.5244 34.0001 61.6866 34.0698 61.8578C34.1408 62.0289 34.194 62.2051 34.2308 62.3863C34.2663 62.5676 34.2853 62.7514 34.2853 62.9364C34.2853 63.1215 34.303 63.304 34.3385 63.4865C34.3753 63.6678 34.4285 63.844 34.4995 64.0151C34.5705 64.1862 34.6567 64.3485 34.7593 64.5018C34.862 64.6565 34.9799 64.7984 35.1104 64.929C35.241 65.0595 35.383 65.1774 35.5376 65.2801C35.691 65.3828 35.8532 65.469 36.0243 65.5399C36.1955 65.6109 36.3716 65.6642 36.5529 65.7009C36.7354 65.7364 36.9179 65.7542 37.103 65.7542C37.2881 65.7542 37.4719 65.7364 37.6531 65.7009C37.8344 65.6642 38.0106 65.6109 38.1817 65.5399C38.3528 65.469 38.515 65.3828 38.6684 65.2801C38.8231 65.1774 38.965 65.0595 39.0956 64.929C39.2274 64.7984 39.344 64.6565 39.4467 64.5018C39.5493 64.3485 39.6368 64.1862 39.7065 64.0151C39.7775 63.844 39.8307 63.6678 39.8675 63.4865C39.903 63.304 39.922 63.1215 39.922 62.9364C39.922 62.7514 39.9397 62.5676 39.9752 62.3863C40.012 62.2051 40.0652 62.0289 40.1362 61.8578C40.2072 61.6866 40.2934 61.5244 40.3961 61.371C40.4987 61.2164 40.6166 61.0744 40.7472 60.9439C40.8777 60.812 41.0197 60.6954 41.1743 60.5928C41.3277 60.4901 41.4899 60.4026 41.6611 60.3329C41.8322 60.2619 42.0084 60.2087 42.1896 60.1719C42.3721 60.1364 42.5547 60.1174 42.7397 60.1174C42.9248 60.1174 43.1086 60.1364 43.2898 60.1719C43.4711 60.2087 43.6473 60.2619 43.8184 60.3329C43.9895 60.4026 44.1518 60.4901 44.3051 60.5928C44.4598 60.6954 44.6017 60.812 44.7323 60.9439C44.8641 61.0744 44.9807 61.2164 45.0834 61.371C45.1861 61.5244 45.2735 61.6866 45.3432 61.8578C45.4142 62.0289 45.4675 62.2051 45.5042 62.3863C45.5397 62.5676 45.5587 62.7514 45.5587 62.9364C45.5587 66.9101 41.4152 71.3909 37.103 73.8157Z" fill="#830067"/>
</g>
</svg>
