<svg width="150" height="76" viewBox="0 0 150 76" fill="none" xmlns="http://www.w3.org/2000/svg">
<mask id="mask0_85_185" style="mask-type:luminance" maskUnits="userSpaceOnUse" x="0" y="0" width="109" height="76">
<path d="M0.973633 0.504395H108.036V75.1368H0.973633V0.504395Z" fill="white"/>
</mask>
<g mask="url(#mask0_85_185)">
<path d="M1.37967 64.7057C4.12841 69.7798 9.98857 72.8183 15.7012 72.5337C17.1155 72.4643 18.5298 72.1988 19.8608 71.7025C21.4156 71.1264 22.8507 70.2917 24.2702 69.4431C27.0571 67.7738 29.8649 66.1113 33.2331 66.3959C36.2126 66.6476 39.4334 67.8449 41.7518 69.7572C43.7717 71.4231 45.2311 73.9012 47.8653 74.6907C49.6735 75.2339 51.558 74.8677 53.3072 74.3038C54.9697 73.7675 56.587 73.1029 58.1939 72.4227C62.6988 70.5138 67.1012 68.3603 71.4517 66.1304C76.1526 63.7218 80.8033 61.2004 85.3411 58.5037C89.3011 56.1524 93.308 53.7073 96.6242 50.4727C101.358 45.855 104.759 39.9202 106.569 33.5759C107.433 30.5478 108.043 27.3271 107.973 24.167C107.914 21.3489 107.322 18.5377 106.255 15.9347C104.131 10.7565 100.169 6.29851 94.9808 4.06863C92.3067 2.91985 89.3966 2.38885 86.4865 2.51726C82.8926 2.68038 79.4393 3.83957 76.2672 5.48291C73.2356 7.05337 70.4261 9.05072 67.7103 11.1105C65.4805 12.8025 62.8688 14.8484 62.0636 17.6631C61.5101 19.591 61.3331 22.6781 63.2714 23.9293C64.4913 24.7171 66.0236 24.292 66.9312 23.2387C67.9255 22.0864 68.08 20.5107 67.896 19.0513C67.5038 15.9937 65.6644 13.271 63.7712 10.9266C61.8137 8.5041 59.6151 6.1996 57.0312 4.44172C54.2304 2.53982 51.0149 1.27998 47.6501 0.880858C44.4745 0.504295 41.2173 0.974565 38.236 2.10773C32.2509 4.38966 27.2862 9.17219 24.8238 15.0931C22.3041 21.1493 22.3457 28.1774 24.3396 34.3776C26.455 40.9475 31.1021 46.4693 35.9437 51.2518C41.1618 56.4023 47.0705 60.7752 53.4599 64.3621C59.9188 67.989 66.9763 70.9876 74.4434 71.5082C78.0893 71.7633 81.7629 71.3641 85.2596 70.3039C85.9294 70.1008 85.6448 69.0475 84.9715 69.2505C77.9487 71.385 70.617 70.5034 63.8076 68.0219C60.3838 66.7725 57.1006 65.1587 53.9285 63.3747C50.9368 61.695 48.0423 59.859 45.2866 57.8183C39.6364 53.6327 34.3854 48.6992 30.1894 43.0386C28.2805 40.4634 26.6545 37.7459 25.5995 34.7056C24.5652 31.7261 24.0151 28.58 23.9856 25.4252C23.9301 19.1173 26.0749 12.976 30.533 8.4451C34.8435 4.06516 40.9431 1.3546 47.1451 1.91858C50.4093 2.21531 53.5484 3.43698 56.2694 5.24344C58.7631 6.89719 60.8524 9.10278 62.7508 11.3951C64.5902 13.6198 66.5026 16.3113 66.8288 19.2613C66.9763 20.6097 66.8167 22.2565 65.5238 23.0148C64.4653 23.6308 63.4276 22.9558 63.0614 21.9094C62.3118 19.768 63.058 17.2536 64.4393 15.5582C66.3585 13.1981 69.0153 11.4402 71.4846 9.7084C76.8988 5.90806 83.2726 2.74632 90.0768 3.78057C95.4494 4.59617 100.143 7.85856 103.139 12.3478C106.226 16.9828 107.394 22.5306 106.632 28.0299C105.757 34.3412 103.29 40.4269 99.4892 45.5461C97.6029 48.0901 95.3539 50.4015 92.8308 52.3191C91.4061 53.4002 89.9102 54.391 88.404 55.3507C84.352 57.9241 80.1595 60.2807 75.9323 62.5522C71.4881 64.9383 66.9867 67.2237 62.4159 69.3512C59.1657 70.8644 55.8495 72.4348 52.3997 73.443C50.5533 73.9827 48.5629 74.1111 46.8709 73.0439C45.8298 72.3862 44.9985 71.4405 44.15 70.559C43.1886 69.5577 42.1995 68.6414 41.0177 67.9109C38.5328 66.3751 35.5185 65.3547 32.5858 65.2697C29.4432 65.1777 26.6962 66.7222 24.0811 68.2874C22.6893 69.1221 21.2855 69.9863 19.7671 70.5798C18.4899 71.0795 17.1381 71.3711 15.7689 71.444C13.0462 71.5932 10.2957 70.9494 7.89751 69.6531C5.55657 68.3863 3.58525 66.507 2.315 64.1591C1.98182 63.5413 1.03955 64.0914 1.37273 64.7092L1.37967 64.7057Z" fill="#830067"/>
</g>
<path d="M96.147 60.0013L144.118 25.4182L147.301 29.8329L99.3313 64.4177L96.147 60.0013Z" fill="#830067"/>
<path d="M145.383 24.8645C145.383 24.8645 147.507 23.9812 148.618 25.5256C149.73 27.0683 148.224 28.8054 148.224 28.8054L145.383 24.8679V24.8645Z" fill="#830067"/>
<path d="M147.297 29.8311L144.113 25.4182L145.088 24.7172C145.177 24.6529 145.301 24.672 145.364 24.7605L148.316 28.8524C148.378 28.9409 148.359 29.0676 148.271 29.1301L147.297 29.8311Z" fill="#830067"/>
<path d="M96.1624 59.989L99.345 64.4019C98.7168 64.8531 97.8422 64.7125 97.391 64.0844L95.8483 61.943C95.3971 61.3148 95.5377 60.4402 96.1659 59.989H96.1624Z" fill="#830067"/>
<path d="M91.387 65.7537L93.1778 64.4609L94.16 65.8197L92.3692 67.1125C92.2026 67.2305 92.003 67.2826 91.8225 67.2531L91.3904 67.1836C91.1284 67.1385 90.9653 66.9199 91.0104 66.6544L91.0798 66.2223C91.1093 66.0418 91.2204 65.8683 91.387 65.7503V65.7537Z" fill="#830067"/>
<path d="M93.4554 62.7551L96.1555 60.8081L98.5624 64.1503L95.8623 66.0973C95.3642 66.4583 94.7256 66.5728 94.1304 66.4184C93.9135 66.3594 93.7244 66.2292 93.596 66.0488L92.7873 64.926C92.6572 64.7455 92.5912 64.5234 92.6051 64.2978C92.6433 63.6818 92.9574 63.1161 93.4589 62.7551H93.4554Z" fill="#830067"/>
<path d="M96.822 60.5289L143.899 26.5879L144.415 27.3046L97.3374 61.2456L96.822 60.5289Z" fill="#F4716D"/>
</svg>
