<svg width="33" height="33" viewBox="0 0 33 33" fill="none" xmlns="http://www.w3.org/2000/svg">
<path d="M16.2281 7.89666C11.624 7.89666 7.91043 11.6111 7.91043 16.2161C7.91043 20.8212 11.624 24.5356 16.2281 24.5356C20.8321 24.5356 24.5457 20.8212 24.5457 16.2161C24.5457 11.6111 20.8321 7.89666 16.2281 7.89666ZM16.2281 21.6249C13.2528 21.6249 10.8205 19.1993 10.8205 16.2161C10.8205 13.233 13.2456 10.8074 16.2281 10.8074C19.2105 10.8074 21.6356 13.233 21.6356 16.2161C21.6356 19.1993 19.2033 21.6249 16.2281 21.6249ZM26.826 7.55635C26.826 8.6352 25.9573 9.49683 24.8859 9.49683C23.8073 9.49683 22.9459 8.62796 22.9459 7.55635C22.9459 6.48473 23.8145 5.61586 24.8859 5.61586C25.9573 5.61586 26.826 6.48473 26.826 7.55635ZM32.3349 9.5258C32.2118 6.92641 31.6182 4.62389 29.7143 2.72685C27.8177 0.829802 25.5157 0.23607 22.9169 0.105739C20.2385 -0.0463141 12.2104 -0.0463141 9.53197 0.105739C6.9404 0.22883 4.6384 0.822561 2.73454 2.71961C0.830677 4.61665 0.244317 6.91917 0.114014 9.51856C-0.0380048 12.1976 -0.0380048 20.2274 0.114014 22.9065C0.237078 25.5059 0.830677 27.8084 2.73454 29.7054C4.6384 31.6025 6.93317 32.1962 9.53197 32.3265C12.2104 32.4786 20.2385 32.4786 22.9169 32.3265C25.5157 32.2034 27.8177 31.6097 29.7143 29.7054C31.611 27.8084 32.2046 25.5059 32.3349 22.9065C32.4869 20.2274 32.4869 12.2048 32.3349 9.5258ZM28.8746 25.781C28.31 27.2002 27.2169 28.2935 25.7908 28.8655C23.6553 29.7127 18.588 29.5172 16.2281 29.5172C13.8681 29.5172 8.79359 29.7054 6.66532 28.8655C5.24647 28.3007 4.15338 27.2074 3.5815 25.781C2.73454 23.645 2.92999 18.5766 2.92999 16.2161C2.92999 13.8557 2.74178 8.78001 3.5815 6.65127C4.14614 5.2321 5.23924 4.13877 6.66532 3.56676C8.80083 2.71961 13.8681 2.9151 16.2281 2.9151C18.588 2.9151 23.6625 2.72685 25.7908 3.56676C27.2096 4.13153 28.3027 5.22486 28.8746 6.65127C29.7216 8.78725 29.5261 13.8557 29.5261 16.2161C29.5261 18.5766 29.7216 23.6523 28.8746 25.781Z" fill="white"/>
</svg>
