<svg width="165" height="47" viewBox="0 0 165 47" fill="none" xmlns="http://www.w3.org/2000/svg">
<path d="M3.56295 46.5016C3.40397 46.3687 3.27109 46.2097 3.16432 46.027C3.06229 45.8419 2.91754 45.6853 2.72772 45.5525C2.65179 45.5525 2.46196 45.5525 2.15824 45.5525C1.85452 45.5525 1.63622 45.5525 1.50334 45.5525C1.37046 45.5003 1.19013 45.4409 0.962336 45.3721C0.739291 45.3081 0.577938 45.2226 0.47828 45.1159C0.452179 45.0637 0.423705 45.0115 0.392858 44.9545C0.366757 44.9023 0.354893 44.8786 0.354893 44.8786C0.354893 44.8786 0.33591 44.8596 0.297945 44.8216C0.25998 44.7837 0.240997 44.7647 0.240997 44.7647V43.8061L1.86401 34.9507V34.8273L4.55005 25.374L5.73646 19.6697C5.66053 19.487 5.70087 19.3446 5.85985 19.2426L8.82113 7.09372C8.87808 7.01305 9.02994 6.94661 9.27671 6.89441C9.52823 6.83746 9.68009 6.8256 9.7323 6.85644C9.83907 6.88254 10.017 6.97508 10.2638 7.13169C10.5153 7.29067 10.7763 7.44965 11.0421 7.60625C11.3078 7.76523 11.4787 7.86964 11.5546 7.91947C11.5784 7.94557 11.6638 8.03099 11.8109 8.17573C11.9556 8.32285 12.0529 8.42251 12.1051 8.47945C12.3946 8.82114 12.5346 9.15808 12.5227 9.48553C12.5085 9.81535 12.5038 10.2045 12.5038 10.653C12.5038 10.6791 12.5156 10.8309 12.5417 11.1085C12.5654 11.3885 12.5797 11.5404 12.5797 11.5641C12.5797 11.5902 12.5726 11.6756 12.5607 11.8204C12.5465 11.9675 12.5275 12.0648 12.5038 12.1146C12.5038 12.1407 12.4682 12.2143 12.3993 12.3329C12.3353 12.4539 12.2902 12.5394 12.2665 12.5892C12.2665 12.6153 12.2594 12.6817 12.2475 12.7885C12.2333 12.8977 12.2285 12.976 12.2285 13.0258C12.2285 13.0258 12.2285 13.0543 12.2285 13.1112C12.2285 13.1634 12.2285 13.1871 12.2285 13.1871C12.2024 13.2631 12.1549 13.46 12.0861 13.7756C12.0221 14.0936 11.9556 14.4163 11.8868 14.7437C11.8228 15.0735 11.7777 15.28 11.7539 15.3606C11.7539 15.3867 11.7539 15.4271 11.7539 15.484C11.7539 15.5362 11.7539 15.56 11.7539 15.56L10.2923 21.9286H10.093L11.3173 16.2338C11.3173 16.1769 11.3221 16.1176 11.3363 16.0535C11.3482 15.9918 11.3007 15.9444 11.194 15.9111L11.118 15.9966L9.38112 23.3144C9.38112 23.3144 9.38112 23.3286 9.38112 23.3523C9.38112 23.3784 9.38112 23.4045 9.38112 23.4282C9.38112 23.5113 9.33841 23.7225 9.25773 24.0642C9.1818 24.4058 9.11536 24.7452 9.05841 25.0797C9.00621 25.4096 8.96824 25.6112 8.94452 25.6872C8.94452 25.6872 8.94452 25.7346 8.94452 25.8295C8.94452 25.9197 8.94452 25.9624 8.94452 25.9624L8.34657 28.8098C8.24453 28.9688 8.15199 29.2156 8.07132 29.5501C7.99539 29.88 7.96929 30.1362 7.99539 30.3189L5.18596 39.2218C5.23579 39.4306 5.21918 39.8007 5.13851 40.3322C5.06258 40.859 5.03648 41.2648 5.06258 41.5566H5.18596L6.41034 37.0008L6.60966 35.6625L7.99539 31.4294C7.93844 31.2159 7.98827 30.9833 8.14725 30.7365C8.30385 30.485 8.37029 30.224 8.34657 29.9583L8.94452 26.8736L9.05841 26.6363L9.93161 22.2893C9.93161 22.1825 9.98381 22.1279 10.093 22.1279C10.093 22.1279 10.0977 22.1279 10.1119 22.1279C10.1238 22.1279 10.1428 22.1422 10.1689 22.1659V22.3273L7.55879 33.9541C7.42591 34.17 7.331 34.4049 7.27405 34.6565C7.22185 34.9032 7.13405 35.131 7.00829 35.3398C6.92524 35.9235 6.81135 36.5903 6.66661 37.3425C6.51949 38.097 6.34865 38.8374 6.15408 39.5634C5.95713 40.2848 5.73883 40.9088 5.49918 41.4332C5.49918 41.4332 5.51816 41.4522 5.55612 41.4902C5.59883 41.5329 5.62256 41.5566 5.62256 41.5566C5.64629 41.5566 5.71748 41.5566 5.83137 41.5566C5.95001 41.5566 6.02594 41.5566 6.05916 41.5566L11.678 40.7594H12.1051L20.4575 39.1838C20.4575 39.1838 20.4764 39.1838 20.5144 39.1838C20.5571 39.1838 20.5808 39.1838 20.5808 39.1838C20.6307 39.1838 20.7802 39.1719 21.0269 39.1458C21.2785 39.115 21.5347 39.0794 21.7957 39.0414C22.0615 39.0035 22.2228 38.9726 22.2798 38.9465C22.3296 38.9465 22.5123 38.9465 22.8303 38.9465C23.1459 38.9465 23.3167 38.9465 23.3428 38.9465C23.4235 38.9465 23.6418 38.9347 23.9977 38.9086C24.3513 38.8777 24.5814 38.8492 24.6906 38.8231C24.7713 38.8231 24.9421 38.8231 25.2031 38.8231C25.4689 38.8231 25.6421 38.8231 25.7251 38.8231C25.8509 39.0652 26.0336 39.1838 26.2756 39.1838C26.1166 39.2597 26.0383 39.3713 26.0383 39.516C26.0383 39.6631 26.0122 39.8007 25.9624 39.9336C25.9292 40.0428 25.8224 40.1211 25.6397 40.1709C25.4546 40.2231 25.4167 40.3014 25.5258 40.4082C25.5495 40.4082 25.5875 40.4153 25.6397 40.4272C25.6967 40.4414 25.7251 40.4604 25.7251 40.4841L25.1651 40.6834C25.1651 40.7095 25.1651 40.7285 25.1651 40.7404C25.1651 40.7546 25.1651 40.7594 25.1651 40.7594C25.215 40.7926 25.2648 40.84 25.317 40.9017C25.374 40.9658 25.4024 40.9966 25.4024 40.9966L24.216 41.3193C24.0831 41.5519 23.8767 41.7085 23.5991 41.7844C23.3262 41.8651 23.0699 41.9742 22.8303 42.1071L20.6947 42.5437C20.5619 42.6505 20.3364 42.7051 20.0209 42.7051V42.9424L14.2027 44.2901C13.9417 44.4728 13.6451 44.5416 13.3105 44.4989C12.9807 44.461 12.6746 44.5488 12.3899 44.7647L6.41034 45.8277C6.27746 45.8775 6.19679 45.9226 6.17306 45.9606C6.14696 46.0033 6.06865 46.065 5.93578 46.1409C5.90967 46.2216 5.84324 46.2643 5.73646 46.2643C5.60358 46.3141 5.37104 46.3782 5.04359 46.4541C4.71377 46.5348 4.52395 46.5775 4.47412 46.5775C4.41717 46.6012 4.29615 46.6155 4.11345 46.6155C3.90464 46.6155 3.71956 46.5775 3.56295 46.5016ZM11.194 15.4366C11.194 15.4627 11.194 15.503 11.194 15.56C11.194 15.6122 11.194 15.6501 11.194 15.6739L11.3173 15.3606C11.3173 15.3606 11.2936 15.3749 11.2509 15.3986C11.2129 15.4247 11.194 15.4366 11.194 15.4366ZM11.3173 14.5254C11.3173 14.5586 11.3173 14.6393 11.3173 14.7722C11.3173 14.9003 11.3173 14.9762 11.3173 15C11.3173 15 11.3363 14.9881 11.3743 14.962C11.417 14.9383 11.4407 14.9122 11.4407 14.8861C11.4645 14.8363 11.5024 14.701 11.5546 14.478C11.6045 14.2502 11.6448 14.1078 11.678 14.0508C11.678 14.0271 11.678 13.9749 11.678 13.899C11.678 13.8183 11.678 13.7637 11.678 13.7376L12.2665 10.9662V10.653C12.2143 10.6031 12.1549 10.6316 12.0861 10.7384C12.0221 10.8404 11.9912 10.9163 11.9912 10.9662C11.9651 11.0231 11.9177 11.2177 11.8489 11.5451C11.7848 11.875 11.7539 12.0648 11.7539 12.1146C11.7539 12.1407 11.7183 12.2475 11.6495 12.4373C11.5855 12.6224 11.5546 12.7387 11.5546 12.7885C11.5285 12.8407 11.5024 13.0519 11.4787 13.4244C11.4526 13.7922 11.4407 14.001 11.4407 14.0508C11.4407 14.0841 11.417 14.16 11.3743 14.2786C11.3363 14.3925 11.3173 14.4756 11.3173 14.5254Z" fill="white"/>
<path d="M17.3725 35.7384C17.2634 35.6886 17.083 35.577 16.8315 35.4062C16.5847 35.2306 16.4352 35.1286 16.3854 35.1025C15.5881 34.4452 15.0329 33.6408 14.7149 32.6917C14.7149 32.5588 14.6912 32.3215 14.639 31.9798C14.5892 31.6382 14.5441 31.2965 14.5061 30.9548C14.4634 30.6084 14.4278 30.3829 14.4017 30.2809C14.4017 30.224 14.4017 30.1457 14.4017 30.0436C14.4017 29.9368 14.4017 29.8704 14.4017 29.8443L15.2749 24.5766L17.9989 19.1191C18.0298 19.0693 18.1318 18.9269 18.3027 18.692C18.4735 18.4524 18.6562 18.1985 18.8532 17.9327C19.0477 17.667 19.1996 17.4843 19.3087 17.3822C19.3894 17.2755 19.5365 17.1236 19.7453 16.9266C19.9541 16.725 20.1558 16.5256 20.3528 16.3287C20.5545 16.1341 20.6802 16.0107 20.7324 15.9585C20.8392 15.8779 21.0456 15.7379 21.3494 15.5409C21.6531 15.3392 21.9615 15.1399 22.2795 14.943C22.5951 14.7484 22.8039 14.6084 22.9059 14.5253C23.0388 14.4755 23.2808 14.383 23.6368 14.2501C23.9974 14.1172 24.23 14.0389 24.3391 14.0128C24.3628 13.9891 24.4934 13.9749 24.7283 13.9749C24.994 13.9749 25.1506 13.9891 25.2028 14.0128C25.3357 14.0128 25.4543 14.0413 25.5635 14.0982C25.5872 14.1243 25.6252 14.1504 25.6774 14.1742C25.7343 14.2003 25.7628 14.2121 25.7628 14.2121C25.8387 14.2643 25.9265 14.3616 26.0286 14.5064C26.1353 14.6535 26.1899 14.7389 26.1899 14.7626V16.9456C26.1899 17.1805 26.1164 17.3134 25.9716 17.3443C25.8316 17.3704 25.6964 17.4202 25.5635 17.4961C25.4306 17.5792 25.236 17.6931 24.9845 17.8378C24.7378 17.9778 24.5598 18.1131 24.453 18.2459C24.4767 18.329 24.5432 18.3693 24.6523 18.3693C24.7022 18.3693 24.7472 18.3693 24.7852 18.3693C24.8279 18.3693 24.8635 18.3693 24.8896 18.3693C25.0723 18.3693 25.1767 18.45 25.2028 18.6066L23.3805 19.793L21.0931 22.6404L19.1094 27.2342C19.0833 27.3101 19.043 27.4762 18.986 27.7277C18.9338 27.9745 18.8959 28.1406 18.8721 28.2213C18.8721 28.2474 18.8365 28.3209 18.7677 28.4396C18.7037 28.5606 18.6728 28.6342 18.6728 28.6579C18.6467 28.7338 18.5921 28.9592 18.5115 29.3318C18.4355 29.6996 18.3715 29.9487 18.3216 30.0816C18.2647 30.4494 18.2291 30.8646 18.2172 31.3249C18.203 31.7876 18.2101 32.2029 18.2362 32.5683C18.2362 32.6015 18.2481 32.6775 18.2742 32.7961C18.305 32.91 18.3216 32.9812 18.3216 33.0049C18.3454 33.0381 18.426 33.1141 18.5589 33.2327C18.6918 33.3466 18.7582 33.4178 18.7582 33.4415C18.8081 33.4985 18.8057 33.553 18.7487 33.6029C18.6965 33.6551 18.6349 33.6788 18.5589 33.6788C18.4759 33.6788 18.3976 33.6408 18.3216 33.5649C18.3216 33.591 18.3216 33.6313 18.3216 33.6883C18.3216 33.7405 18.3216 33.7784 18.3216 33.8022C18.3976 33.9042 18.5067 34.0086 18.6538 34.1154C18.7986 34.2245 18.9504 34.2649 19.1094 34.2388C19.3752 34.1818 19.7453 34.1154 20.2199 34.0395C20.6945 33.9588 20.9436 33.9042 20.9697 33.8781C21.1785 33.8283 21.506 33.7049 21.9568 33.5079C22.4053 33.3063 22.6592 33.1805 22.7161 33.1283L25.1269 31.0307C25.1506 30.8978 25.2621 30.7602 25.4591 30.6131C25.6608 30.4684 25.8008 30.3165 25.8767 30.1575C25.9004 30.1338 25.9384 30.0484 25.9906 29.9013C26.0476 29.7565 26.0879 29.6711 26.114 29.645C26.1377 29.5952 26.2421 29.4124 26.4272 29.0945C26.617 28.7789 26.7238 28.5915 26.7499 28.5345C26.8258 28.4586 26.8638 28.3542 26.8638 28.2213C26.8638 28.1976 26.8638 28.1596 26.8638 28.1074C26.8638 28.0504 26.8638 28.0101 26.8638 27.984C26.8875 27.9342 26.9611 27.8037 27.0821 27.5949C27.2007 27.3813 27.2743 27.2603 27.3004 27.2342C27.3004 27.2105 27.3004 27.1725 27.3004 27.1203C27.3004 27.0634 27.3004 27.023 27.3004 26.9969C27.3574 26.8403 27.4167 26.5223 27.4807 26.0478C27.5424 25.5732 27.6136 25.0939 27.6895 24.6051C27.7702 24.1116 27.8272 23.7865 27.8604 23.6275C27.8604 23.4946 27.8604 23.2146 27.8604 22.7828C27.8604 22.3462 27.8604 22.0757 27.8604 21.9665C27.7512 21.7838 27.718 21.6248 27.756 21.492C27.794 21.3591 27.7868 21.1882 27.737 20.9794C27.737 20.9794 27.7228 20.9676 27.699 20.9415C27.6729 20.9177 27.6468 20.9035 27.6231 20.9035C27.6231 20.8727 27.6065 20.8133 27.5757 20.7232C27.5496 20.6283 27.5234 20.5689 27.4997 20.5428C27.4997 20.5428 27.4855 20.531 27.4618 20.5049C27.4357 20.4811 27.4238 20.455 27.4238 20.4289C27.3977 20.3981 27.2909 20.3245 27.1011 20.2106C26.916 20.092 26.7997 20.0184 26.7499 19.9923C26.4082 19.7266 26.2991 19.43 26.4272 19.1002C26.5601 18.7727 26.7997 18.6066 27.1485 18.6066C27.2245 18.6066 27.3123 18.6208 27.4143 18.6446C27.5211 18.6707 27.6279 18.7252 27.737 18.8059C28.7668 19.1476 29.6448 19.3849 30.3661 19.5178C31.0922 19.6506 31.7067 19.7171 32.2074 19.7171C32.7389 19.7171 33.1803 19.6649 33.5362 19.5557C33.8897 19.449 34.2124 19.3279 34.5043 19.1951L38.6615 17.6575C38.6852 17.6575 38.7232 17.6575 38.7754 17.6575C38.8323 17.6575 38.8727 17.6575 38.8988 17.6575C38.9486 17.6836 39.0245 17.7097 39.1266 17.7334C39.2333 17.7595 39.3021 17.8141 39.3354 17.8948C39.4611 18.1036 39.5632 18.3029 39.6391 18.4927C39.7198 18.6778 39.7245 18.9103 39.6486 19.1951C39.3069 19.4869 38.6449 19.8974 37.6649 20.4289C36.6897 20.9557 35.2778 21.3496 33.4318 21.6153C32.9311 21.6153 32.4304 21.5916 31.9322 21.5394C31.4315 21.4825 30.9451 21.3757 30.4705 21.2167C30.3613 21.1669 30.143 21.1099 29.8156 21.0459C29.4858 20.9771 29.2675 20.9296 29.1607 20.9035C29.0848 20.8228 29.0041 20.8228 28.9234 20.9035C28.9234 20.9296 28.9234 20.996 28.9234 21.1028C28.9234 21.2048 28.9234 21.2808 28.9234 21.3306C28.9732 21.5204 29.0183 21.715 29.0563 21.9096C29.099 22.1065 29.1346 22.313 29.1607 22.5265C29.1607 22.6855 29.1607 22.9489 29.1607 23.3143C29.1607 23.6821 29.1607 23.8933 29.1607 23.9502L28.4109 28.0979C28.3848 28.2071 28.2994 28.4396 28.1546 28.8003C28.0075 29.1562 27.9102 29.3958 27.8604 29.5216C27.7773 29.6545 27.6089 29.9274 27.3574 30.3379C27.1106 30.7507 26.8662 31.1541 26.6265 31.5527C26.3916 31.9466 26.2208 32.2219 26.114 32.3785C25.9052 32.5066 25.7581 32.6775 25.6774 32.891C25.5754 32.9669 25.3666 33.1259 25.051 33.3656C24.733 33.6005 24.4245 33.8378 24.1208 34.0774C23.8171 34.3123 23.5988 34.4713 23.4659 34.552C23.4398 34.5781 23.3734 34.6184 23.2666 34.6754C23.1575 34.7276 23.0792 34.7513 23.0293 34.7513C22.8964 34.8035 22.6236 34.8889 22.2131 35.0076C21.8073 35.1286 21.4063 35.2496 21.0077 35.3682C20.6138 35.4821 20.3385 35.5676 20.1819 35.6245C20.0491 35.6245 19.9019 35.6245 19.7453 35.6245C19.5864 35.6245 19.4416 35.6245 19.3087 35.6245C19.1996 35.6245 19.1403 35.6055 19.1284 35.5676C19.1142 35.5248 19.0833 35.5011 19.0335 35.5011C18.9813 35.5011 18.9291 35.5154 18.8721 35.5391C18.8721 35.5391 18.8579 35.5557 18.8342 35.5865C18.8081 35.6126 18.782 35.6245 18.7582 35.6245C18.5684 35.8096 18.3145 35.8997 17.9989 35.8997C17.764 35.8997 17.5552 35.8475 17.3725 35.7384ZM17.6857 33.4415C17.6857 33.5246 17.7261 33.5649 17.8091 33.5649C17.8091 33.432 17.821 33.1354 17.8471 32.6727C17.8708 32.2124 17.885 31.9276 17.885 31.8185C17.885 31.7948 17.885 31.7378 17.885 31.6476C17.885 31.5527 17.885 31.5053 17.885 31.5053C17.9088 31.3487 17.9539 31.0782 18.0179 30.6985C18.0867 30.3141 18.1532 29.925 18.2172 29.5311C18.286 29.1325 18.3216 28.8667 18.3216 28.7338C18.3715 28.525 18.4284 28.3233 18.4925 28.1264C18.5613 27.9247 18.6206 27.7325 18.6728 27.5474C18.7037 27.4976 18.7393 27.3552 18.7772 27.1203C18.8152 26.8806 18.8579 26.6505 18.9101 26.4274C18.967 26.1996 18.9955 26.0573 18.9955 26.0003C19.0715 25.7417 19.2138 25.4214 19.4226 25.0417C19.6362 24.6573 19.7192 24.2919 19.6694 23.9502C19.5864 23.9502 19.546 23.9882 19.546 24.0641C19.4701 24.197 19.3586 24.4034 19.2138 24.681C19.0667 24.961 18.9955 25.1129 18.9955 25.1366L18.1223 28.2972C18.1223 28.3233 18.1223 28.3637 18.1223 28.4206C18.1223 28.4728 18.1223 28.5108 18.1223 28.5345C18.0962 28.5606 18.0369 28.6816 17.942 28.8952C17.8518 29.104 17.8091 29.2345 17.8091 29.2843C17.7759 29.3175 17.7664 29.4124 17.7806 29.5691C17.7996 29.728 17.8091 29.8206 17.8091 29.8443C17.7759 29.8704 17.7474 30.0104 17.7237 30.2619C17.6976 30.5087 17.6857 30.6606 17.6857 30.7175C17.6857 30.7436 17.6857 30.848 17.6857 31.0307C17.6857 31.2158 17.6857 31.3321 17.6857 31.3819C17.6596 31.7307 17.624 32.0748 17.5813 32.4164C17.5434 32.7581 17.5766 33.0998 17.6857 33.4415ZM19.4321 25.4878C19.3752 25.4878 19.3467 25.5234 19.3467 25.5922C19.3467 25.6563 19.3752 25.6871 19.4321 25.6871C19.4819 25.6871 19.508 25.6563 19.508 25.5922C19.508 25.5234 19.4819 25.4878 19.4321 25.4878ZM19.6694 24.9373C19.5864 24.9373 19.5864 24.9753 19.6694 25.0512C19.7691 25.0014 19.7952 24.9231 19.7453 24.8139C19.7453 24.8139 19.7311 24.8305 19.7074 24.8614C19.6813 24.8875 19.6694 24.9136 19.6694 24.9373ZM20.0965 23.8268C20.0206 23.9099 20.0206 23.9882 20.0965 24.0641C20.2294 24.0143 20.2579 23.898 20.1819 23.7129C20.1819 23.739 20.1653 23.7651 20.1345 23.7889C20.1084 23.815 20.0965 23.8268 20.0965 23.8268ZM20.2958 22.9536C20.2958 22.9536 20.3077 22.9702 20.3338 23.0011C20.3646 23.0272 20.3931 23.0533 20.4192 23.077C20.4192 23.077 20.4311 23.077 20.4572 23.077C20.4809 23.077 20.507 23.077 20.5331 23.077C20.5568 23.0272 20.609 22.9157 20.685 22.7448C20.7656 22.5692 20.8226 22.4553 20.8558 22.4031C20.8558 22.4031 20.8677 22.3913 20.8938 22.3652C20.9175 22.3414 20.9436 22.3153 20.9697 22.2892C21.0195 22.2086 21.1714 22.0092 21.4253 21.6913C21.6768 21.3757 21.9212 21.0459 22.1561 20.7042C22.3958 20.3625 22.5405 20.1632 22.5927 20.1062C22.6734 20.0303 22.8727 19.8476 23.1907 19.5557C23.5063 19.2663 23.7151 19.0954 23.8171 19.0432C23.8408 18.9103 23.9334 18.7775 24.0923 18.6446C24.2561 18.5117 24.3106 18.4215 24.2537 18.3693C24.2276 18.3693 24.2015 18.3693 24.1778 18.3693C24.1517 18.3693 24.1398 18.3693 24.1398 18.3693C24.1066 18.3954 24.0449 18.4547 23.95 18.5497C23.8598 18.6398 23.8171 18.6825 23.8171 18.6825C23.791 18.7086 23.7317 18.7371 23.6368 18.768C23.5466 18.7941 23.4896 18.8059 23.4659 18.8059C23.4398 18.832 23.3852 18.8913 23.3046 18.9863C23.2286 19.0764 23.1741 19.1191 23.1432 19.1191C23.1171 19.1452 23.0127 19.2188 22.83 19.3374C22.6449 19.4585 22.5287 19.532 22.4788 19.5557C22.4456 19.5818 22.3887 19.6554 22.308 19.774C22.2321 19.8951 22.1799 19.9686 22.1561 19.9923C22.13 20.0184 22.0754 20.0778 21.9948 20.1727C21.9188 20.2628 21.8666 20.3198 21.8429 20.3435L20.2958 22.9536Z" fill="white"/>
<path d="M38.258 35.3398C37.94 35.1309 37.6363 34.9364 37.3468 34.7513C37.0621 34.5686 36.8248 34.3028 36.635 33.954C36.6089 33.9042 36.5543 33.7689 36.4736 33.5459C36.3977 33.3181 36.3597 33.1923 36.3597 33.1662C36.3597 33.1662 36.3336 33.1283 36.2838 33.0524C36.2316 32.9717 36.2316 32.891 36.2838 32.8151L35.3347 27.1962C35.4106 26.9827 35.4153 26.7383 35.3536 26.4654C35.2896 26.1878 35.2967 25.9529 35.3726 25.763L36.0085 17.0216L36.2458 16.509C36.3455 16.4022 36.5709 16.3239 36.9197 16.2717C36.9434 16.2717 36.9624 16.2717 36.9767 16.2717C36.9885 16.2717 37.0075 16.2717 37.0336 16.2717C37.0834 16.2717 37.1095 16.2789 37.1095 16.2907C37.1095 16.305 37.1617 16.3358 37.2709 16.3856C37.3207 16.3856 37.5177 16.4141 37.8593 16.4711C38.2058 16.5233 38.5641 16.5755 38.9319 16.6324C39.3044 16.6846 39.5156 16.7226 39.5678 16.7463C39.5678 16.8555 39.6057 16.9456 39.6817 17.0216C39.6817 17.0216 39.7007 17.0358 39.7386 17.0595C39.7813 17.0856 39.8169 17.0975 39.843 17.0975C39.9237 17.1805 39.9664 17.2826 39.9664 17.4012C39.9664 17.5151 40.0044 17.6005 40.0803 17.6575C40.0542 17.7334 40.0352 17.8853 40.0234 18.113C40.0091 18.3361 40.0044 18.488 40.0044 18.5686C40.0044 18.5947 39.9878 18.6208 39.9569 18.6446C39.9308 18.6707 39.919 18.6825 39.919 18.6825C39.8929 18.8985 39.8668 19.2188 39.843 19.6411C39.8169 20.0588 39.7908 20.2937 39.7671 20.3435C39.741 20.6093 39.7718 20.8086 39.862 20.9415C39.9569 21.0743 39.9379 21.2713 39.8051 21.5299L39.7671 25.0132C39.7908 25.0393 39.8051 25.1722 39.8051 25.4119C39.8051 25.6468 39.8051 25.7915 39.8051 25.8485C39.8051 25.9813 39.8169 26.2329 39.843 26.5983C39.8668 26.9661 39.9 27.3362 39.9379 27.7087C39.9807 28.0765 40.0044 28.3257 40.0044 28.4586C40.1871 29.0921 40.3295 29.6687 40.4315 30.186C40.5383 30.6985 40.6213 30.9548 40.6783 30.9548C40.6783 30.9548 40.702 30.848 40.7542 30.6321C40.861 30.4755 41.0199 30.186 41.2288 29.7684C41.4376 29.346 41.6464 28.9141 41.8552 28.4775C42.0687 28.0409 42.2182 27.7443 42.3013 27.5854C42.2681 27.4857 42.3511 27.3077 42.548 27.0539C42.7497 26.8023 42.8636 26.6244 42.8897 26.5223C42.9396 26.4654 43.0321 26.3017 43.165 26.0288C43.2979 25.7512 43.3762 25.5993 43.4023 25.5732C43.4829 25.3597 43.604 25.2125 43.7629 25.1366C43.9195 25.0559 44.0239 24.9753 44.0761 24.8993L46.2971 20.2296C46.2971 20.073 46.3469 19.9639 46.449 19.9069L48.5845 15.6358C48.5845 15.586 48.6367 15.4935 48.7459 15.3606C48.8526 15.2277 48.9191 15.1494 48.9452 15.1233C48.9689 15.1233 49.0496 15.1233 49.1825 15.1233C49.3153 15.1233 49.4197 15.1233 49.4957 15.1233C49.5526 15.1494 49.6119 15.2158 49.676 15.3226C49.7448 15.4246 49.7638 15.5172 49.733 15.5979C49.7069 15.707 49.6808 15.8517 49.657 16.0345C49.6309 16.2195 49.6048 16.3358 49.5811 16.3856L47.2842 21.2547L46.8476 21.9286L43.2884 29.4077C43.0724 29.6426 42.923 29.8799 42.8423 30.1195C42.7663 30.3616 42.6477 30.5846 42.4911 30.7934C42.4911 30.8456 42.4057 30.9975 42.2348 31.249C42.064 31.4958 41.8979 31.7473 41.7413 31.9988C41.5823 32.2527 41.4898 32.4046 41.466 32.4544C41.281 32.7463 41.0959 33.0571 40.9061 33.3845C40.721 33.7144 40.5264 34.0252 40.3176 34.3147C40.2654 34.4238 40.2179 34.4642 40.1752 34.4381C40.1373 34.4072 40.0518 34.4191 39.919 34.476C39.76 34.5781 39.6271 34.7133 39.5203 34.8842C39.4183 35.055 39.302 35.1689 39.1691 35.2259C39.143 35.252 39.0505 35.2781 38.8939 35.3018C38.7349 35.3279 38.6424 35.3398 38.6186 35.3398C38.6186 35.3659 38.5712 35.3943 38.4763 35.4252C38.3861 35.4513 38.3434 35.4631 38.3434 35.4631C38.2865 35.4631 38.258 35.4228 38.258 35.3398Z" fill="white"/>
<path d="M51.3965 34.5519C51.0786 34.5519 50.7511 34.4285 50.4094 34.1817C50.0678 33.9302 49.802 33.6834 49.6122 33.4414C49.5884 33.3916 49.4508 33.1543 49.204 32.7296C48.9525 32.3072 48.7722 32.0035 48.663 31.8184C48.4803 31.453 48.3498 31.0662 48.2739 30.6605C48.1932 30.25 48.1386 29.8323 48.1125 29.4076C48.1125 29.3578 48.1007 29.2154 48.0746 28.9805C48.0509 28.7408 48.0319 28.5107 48.0176 28.2876C48.0058 28.0598 47.9987 27.9175 47.9987 27.8605C47.9678 27.3622 48.0058 26.8734 48.1125 26.3989C48.2217 25.9243 48.3261 25.4379 48.4258 24.9372C48.4258 24.9135 48.4258 24.8565 48.4258 24.7664C48.4258 24.6714 48.4258 24.624 48.4258 24.624C48.459 24.4911 48.5159 24.3535 48.5966 24.2064C48.6725 24.0616 48.7247 23.9359 48.7485 23.8267C48.8244 23.7508 48.8624 23.6464 48.8624 23.5135C48.8624 23.4898 48.8624 23.4518 48.8624 23.3996C48.8624 23.3427 48.8624 23.3023 48.8624 23.2762C48.8885 23.2525 48.9288 23.1789 48.9857 23.0579C49.0379 22.9393 49.0759 22.8657 49.0996 22.8396C49.2586 22.5501 49.4034 22.2464 49.5362 21.9285C49.6691 21.6129 49.8162 21.2973 49.9728 20.9793C49.9728 20.9793 49.9871 20.9675 50.0108 20.9414C50.0369 20.9176 50.0488 20.9034 50.0488 20.9034C50.2623 20.557 50.4332 20.2533 50.5613 19.9922C50.6942 19.7265 50.8555 19.437 51.0454 19.119C51.0691 19.119 51.0952 19.1072 51.1213 19.0811C51.145 19.0573 51.1593 19.0431 51.1593 19.0431C51.183 19.0194 51.2399 18.9458 51.3301 18.8248C51.425 18.7062 51.4725 18.6326 51.4725 18.6065C51.5033 18.5828 51.5318 18.5567 51.5579 18.5306C51.5816 18.4997 51.5959 18.4831 51.5959 18.4831C51.6457 18.4333 51.743 18.3028 51.8901 18.094C52.0348 17.8804 52.1202 17.7594 52.1463 17.7333C52.2792 17.5767 52.4975 17.3513 52.8012 17.0594C53.105 16.7699 53.4016 16.4947 53.6934 16.2337C53.9829 15.9679 54.1538 15.8113 54.206 15.7591C54.2558 15.7283 54.3982 15.6429 54.6331 15.5029C54.8727 15.3581 55.1385 15.1991 55.4303 15.0283C55.7198 14.8527 55.9334 14.7246 56.0663 14.6486C56.09 14.6486 56.1469 14.6368 56.2371 14.6107C56.332 14.5869 56.3937 14.5585 56.4269 14.5253C56.4507 14.5253 56.4839 14.5134 56.5218 14.4873C56.5598 14.4636 56.5906 14.4493 56.6167 14.4493C56.7496 14.4256 56.9679 14.3876 57.2716 14.3354C57.5754 14.2785 57.8791 14.231 58.1828 14.1931C58.4865 14.1551 58.6906 14.1242 58.7997 14.0981C58.8235 14.0981 58.8614 14.0981 58.9136 14.0981C58.9706 14.0981 59.0109 14.0981 59.037 14.0981C59.1699 14.1242 59.3787 14.1503 59.6635 14.1741C59.9529 14.2002 60.1119 14.212 60.138 14.212C60.2709 14.2381 60.4536 14.3046 60.6885 14.4114C60.9282 14.5205 61.061 14.6368 61.0872 14.7625L61.761 16.5089C61.761 16.5089 61.761 16.5232 61.761 16.5469C61.761 16.573 61.761 16.5991 61.761 16.6228C61.7349 16.8127 61.6756 17.0784 61.5807 17.4201C61.4905 17.7618 61.4478 17.9326 61.4478 17.9326L59.7868 20.4668C59.7607 20.4929 59.6753 20.5712 59.5306 20.7041C59.3835 20.837 59.298 20.9295 59.2743 20.9793C59.1913 21.0553 59.1509 21.1359 59.1509 21.2166C59.0987 21.2925 58.954 21.4586 58.7143 21.7102C58.4794 21.9641 58.2421 22.2179 58.0025 22.4695C57.7676 22.7162 57.5967 22.8776 57.4899 22.9535C57.4638 22.9867 57.3239 23.0817 57.0723 23.2383C56.8256 23.3972 56.5622 23.5562 56.2846 23.7128C56.0046 23.8718 55.7863 23.9881 55.6297 24.064C55.6036 24.0901 55.4991 24.1257 55.3164 24.1684C55.1314 24.2064 55.0246 24.2396 54.9937 24.2633C54.9676 24.2894 54.8419 24.4152 54.6141 24.643C54.391 24.866 54.2558 25.0013 54.206 25.0511C54.13 25.108 53.9521 25.2172 53.6744 25.3738C53.3945 25.5328 53.2189 25.6372 53.1429 25.687C52.927 25.7962 52.6874 25.8294 52.4216 25.7914C52.1606 25.7487 51.966 25.8341 51.8331 26.0477C51.807 26.0738 51.7596 26.1402 51.6908 26.247C51.6267 26.349 51.5959 26.425 51.5959 26.4748L50.9599 29.7208C50.884 29.9367 50.884 30.1622 50.9599 30.3947C50.9599 30.5039 51.0026 30.7222 51.0928 31.0496C51.1877 31.3794 51.2494 31.5977 51.2826 31.7045C51.2826 31.7804 51.3206 31.8184 51.3965 31.8184C51.3965 31.8184 51.4274 31.835 51.4914 31.8659C51.5603 31.892 51.5959 31.9181 51.5959 31.9418C51.6457 32.0177 51.6528 32.0794 51.6148 32.1221C51.5769 32.1601 51.6077 32.2052 51.7097 32.255L51.8331 32.0177C52.1226 32.2835 52.4785 32.4163 52.8962 32.4163C53.086 32.4163 53.2307 32.4045 53.3328 32.3784C53.5985 32.3475 53.9331 32.3001 54.3388 32.236C54.7493 32.1743 55.1195 32.1103 55.4493 32.0462C55.7839 31.9774 55.9642 31.9418 55.9903 31.9418L60.5746 28.971C60.6553 28.8642 60.755 28.7669 60.8689 28.6768C60.9875 28.5819 61.1014 28.4964 61.2105 28.4205L66.1555 22.8396H66.7914C66.8151 22.8396 66.8531 22.9251 66.9053 23.0959C66.9623 23.2667 67.0026 23.4067 67.0287 23.5135C67.0785 23.7484 66.9528 24.064 66.6491 24.4626C66.3453 24.8565 66.1413 25.1603 66.0416 25.3738C66.0416 25.3999 66.0416 25.4402 66.0416 25.4972C66.0416 25.5494 66.0416 25.5731 66.0416 25.5731L62.6342 29.2083L62.5203 29.4076L57.6133 32.9289C57.5801 32.9289 57.414 33.0024 57.1103 33.1472C56.8113 33.2943 56.4768 33.4462 56.1042 33.6028C55.7364 33.7617 55.4327 33.8946 55.1931 34.0014C55.167 34.0275 55.1005 34.0536 54.9937 34.0773C54.8917 34.1034 54.8134 34.1153 54.7565 34.1153C54.7304 34.1153 54.626 34.1153 54.4432 34.1153C54.2582 34.1153 54.1538 34.1153 54.13 34.1153C54.047 34.1153 53.8002 34.1509 53.3897 34.2197C52.984 34.2838 52.7562 34.3146 52.7063 34.3146C52.4904 34.3407 52.2697 34.3882 52.0419 34.457C51.8189 34.521 51.6053 34.5519 51.3965 34.5519ZM58.2777 31.8184C58.2018 31.8184 58.2018 31.8611 58.2777 31.9418L59.1509 31.5052C59.0489 31.5052 58.8899 31.5242 58.6764 31.5621C58.4676 31.6001 58.3347 31.6855 58.2777 31.8184ZM52.4691 24.064C52.4691 24.0901 52.4691 24.1755 52.4691 24.3203C52.4691 24.4674 52.4691 24.567 52.4691 24.624L52.8202 24.5006L56.7401 22.0898L59.3502 19.119C59.4831 19.1451 59.5614 19.1001 59.5875 18.9862C59.6113 18.8675 59.6113 18.7655 59.5875 18.6824C59.877 18.2909 60.1143 17.8638 60.2994 17.4011C60.4821 16.9408 60.5367 16.4591 60.4607 15.9584C60.3516 15.5361 60.1285 15.3225 59.7868 15.3225C59.7346 15.3486 59.6089 15.4151 59.4072 15.5218C59.2102 15.6239 59.0869 15.7022 59.037 15.7591C58.852 15.892 58.6099 16.0984 58.3062 16.3761C58.0025 16.6489 57.8506 16.7984 57.8506 16.8221C57.5588 17.2208 57.2005 17.693 56.7781 18.2363C56.3534 18.775 55.9761 19.2567 55.6486 19.679C55.3188 20.0966 55.1409 20.3197 55.1171 20.3434L52.7063 23.6274C52.6731 23.6535 52.6328 23.7199 52.5829 23.8267C52.5307 23.9359 52.4928 24.0142 52.4691 24.064ZM59.037 20.1061C58.9801 20.1061 58.9516 20.1488 58.9516 20.2295C58.9516 20.3055 58.9801 20.3434 59.037 20.3434C59.0869 20.3434 59.113 20.3055 59.113 20.2295C59.113 20.1488 59.0869 20.1061 59.037 20.1061ZM55.5537 19.119C55.5276 19.1451 55.4873 19.2187 55.4303 19.3373C55.3781 19.4584 55.3402 19.5438 55.3164 19.5936C55.4161 19.5699 55.5727 19.4655 55.7815 19.2804C55.9951 19.0977 56.2015 18.896 56.3984 18.6729C56.6001 18.4452 56.714 18.2791 56.7401 18.1699C56.4981 18.1699 56.2751 18.2838 56.0663 18.5116C55.8574 18.7346 55.6866 18.9363 55.5537 19.119ZM56.9774 17.7333V17.8092L57.0533 17.7333H56.9774Z" fill="white"/>
<path d="M74.741 43.1795C74.8976 43.4951 75.0495 43.8249 75.1966 44.1666C75.3413 44.5083 75.3722 44.8026 75.2915 45.0493C75.2156 45.3008 74.9142 45.4693 74.3898 45.5524H73.5166L72.6434 45.0398C72.4583 44.9568 72.3136 44.8358 72.2068 44.6792L71.9316 44.4039C71.8794 44.2948 71.775 44.1097 71.6184 43.8439C71.4594 43.5829 71.3075 43.3148 71.1628 43.0372C71.0157 42.7572 70.9184 42.5816 70.8685 42.5057L70.9065 42.5436C70.8496 42.4107 70.7665 42.1782 70.6597 41.8508C70.5577 41.5209 70.5079 41.3311 70.5079 41.2813L70.4699 41.2433C70.2848 41.1864 70.0475 41.1081 69.7581 41.006C69.4662 40.8993 69.2669 40.8162 69.1601 40.7593C69.0272 40.7094 68.8208 40.5932 68.5432 40.4081C68.2703 40.2254 68.0022 40.0355 67.7364 39.8386C67.4754 39.6369 67.3046 39.5112 67.2239 39.459L67.3473 39.4969C67.2903 39.4471 67.2191 39.3901 67.1385 39.3261C67.0625 39.2573 67.0103 39.1695 66.9866 39.0603C66.8015 38.9274 66.6022 38.6783 66.3886 38.3105L65.7622 37.4373C65.7622 37.4373 65.7385 37.3946 65.6958 37.3044C65.6578 37.2095 65.6009 37.0838 65.5249 36.9248L65.3636 36.6116C65.1785 36.2129 65.0077 35.8048 64.8511 35.3872C64.6921 34.9648 64.5711 34.514 64.4904 34.0394V32.2551C64.4904 32.1483 64.5307 32.0035 64.6138 31.8185C64.6138 31.6618 64.6921 31.5313 64.8511 31.4293V31.192C64.8511 31.192 64.8748 31.1256 64.927 30.9927C64.9839 30.8598 65.0243 30.7815 65.0504 30.7554L66.3886 29.5216C66.5453 29.3958 66.7327 29.3317 66.9486 29.3317C66.9985 29.3317 67.0483 29.3317 67.1005 29.3317C67.1574 29.3317 67.2096 29.3317 67.2618 29.3317H67.4612L67.8598 29.6829C67.8598 29.6592 67.8835 29.6711 67.9357 29.7209C67.9856 29.7778 68.0354 29.8609 68.0876 29.9677C68.1445 30.0697 68.1849 30.1456 68.211 30.1954C68.2917 30.3544 68.3106 30.4992 68.2679 30.632C68.23 30.7649 68.1849 30.8978 68.135 31.0307V30.9927C68.1089 31.0188 68.09 31.0663 68.0781 31.1351C68.0639 31.1992 68.0591 31.23 68.0591 31.23C68.0591 31.389 67.9927 31.5052 67.8598 31.5812C67.8835 31.5574 67.9215 31.5432 67.9737 31.5432C68.0306 31.5432 68.0639 31.5574 68.0781 31.5812C68.09 31.6073 68.0971 31.6191 68.0971 31.6191L67.8978 32.0178C67.8147 32.1269 67.7008 32.293 67.5561 32.5208C67.4161 32.7439 67.3971 32.8127 67.4991 32.7296C67.473 32.8388 67.4612 32.9384 67.4612 33.0333C67.4612 33.1235 67.473 33.2327 67.4991 33.3655C67.4991 33.4984 67.5181 33.7238 67.5561 34.0394C67.5988 34.3574 67.6462 34.6658 67.6984 34.9696C67.7483 35.2733 67.7886 35.4774 67.8218 35.577V35.539C68.0306 36.0136 68.3249 36.398 68.7045 36.6875C69.0889 36.9793 69.4923 37.2166 69.9099 37.3993V35.5011L71.7322 26.8355L80.0466 9.81763L81.0337 8.55529C81.0835 8.44851 81.1879 8.39394 81.3469 8.39394H81.7835C81.8642 8.39394 82.0232 8.41766 82.2581 8.46038C82.4977 8.49834 82.6971 8.63596 82.856 8.8685C82.856 8.8685 82.8608 8.88511 82.875 8.91596C82.8869 8.94206 82.894 8.98002 82.894 9.02985C83.0269 9.34781 83.1835 9.65628 83.3686 9.96C83.5513 10.2637 83.7221 10.5746 83.8811 10.8901C83.8811 10.9993 83.8669 11.1559 83.8431 11.3647C83.817 11.5735 83.7767 11.7206 83.7198 11.8013C83.352 12.6437 82.9557 13.5264 82.5333 14.4494C82.1157 15.3748 81.7195 16.2575 81.3469 17.0975C81.1618 17.3395 81.01 17.5981 80.8913 17.8757C80.7775 18.1486 80.6541 18.431 80.5212 18.7205V18.6825L80.2839 19.3944L80.1985 19.5177C80.1226 19.5937 80.0703 19.6316 80.0466 19.6316C80.0466 19.6316 80.0656 19.6269 80.1036 19.6126C80.1415 19.6008 80.1724 19.5818 80.1985 19.5557L80.1605 19.5937C80.0846 19.7028 79.9612 19.914 79.7904 20.2296C79.6195 20.5475 79.5175 20.7302 79.4866 20.7801C79.4605 20.8062 79.4226 20.8845 79.3727 21.0174C79.3205 21.1502 79.2968 21.2428 79.2968 21.2926C79.2399 21.4255 79.1687 21.5726 79.088 21.7292C79.0121 21.8882 78.948 22.0472 78.8982 22.2038C78.8721 22.2868 78.8602 22.3224 78.8602 22.3082C78.8602 22.2963 78.846 22.2892 78.8222 22.2892C78.8222 22.2892 78.8222 22.3034 78.8222 22.3272C78.8222 22.3533 78.8056 22.3912 78.7748 22.4411H79.2114L80.2459 22.0899H80.1985C80.412 22.0092 80.673 21.9167 80.9768 21.8146C81.2805 21.7079 81.4442 21.6414 81.4703 21.6153L82.8181 21.378C82.9438 21.3472 83.0791 21.3187 83.2262 21.2926C83.3709 21.2689 83.4564 21.2546 83.4825 21.2546H83.7672C83.817 21.1218 83.9333 21.0553 84.1184 21.0553C84.1753 21.0553 84.3794 21.0553 84.7353 21.0553C85.0889 21.0553 85.2787 21.0435 85.3048 21.0174C85.3855 20.9414 85.478 20.9035 85.58 20.9035C85.58 20.9035 85.6322 20.8845 85.7414 20.8465C85.8482 20.8038 85.9692 20.7682 86.1021 20.7421L86.8519 20.5428C86.9017 20.436 86.9942 20.3814 87.1271 20.3814H87.4403L90.2118 19.6696C90.2925 19.6696 90.3731 19.6577 90.4491 19.6316L90.7243 19.5177C90.805 19.4608 91.0186 19.3706 91.3602 19.2425C91.7019 19.1096 91.9629 19.0313 92.148 19.0052C92.2809 18.8984 92.5372 18.7466 92.9168 18.5496C93.3012 18.3479 93.548 18.234 93.6571 18.2079C93.707 18.1842 93.7521 18.1581 93.79 18.132C93.8327 18.1083 93.8683 18.094 93.8944 18.094C94.0273 17.9612 94.2646 17.75 94.6063 17.4581C94.948 17.1686 95.171 16.9836 95.2801 16.9076L95.2422 16.9456L95.4795 16.8222C95.6123 16.6656 95.7832 16.4615 95.992 16.2148C96.2008 15.9632 96.4025 15.7307 96.5994 15.5219C96.8011 15.3083 96.9032 15.1992 96.9032 15.1992C97.3516 14.466 97.7669 13.6711 98.1465 12.8169C98.5309 11.9579 98.7753 11.1037 98.8773 10.2542V9.94102C98.8251 9.80814 98.7729 9.65153 98.716 9.46645C98.6638 9.28375 98.614 9.1129 98.5641 8.95392V8.90647L98.4028 8.4319L98.2509 8.15665C98.2177 8.10682 98.1774 8.04276 98.1275 7.96683C98.0753 7.88615 98.035 7.81971 98.0042 7.76751L96.9032 6.65703C96.7442 6.52415 96.5638 6.35331 96.3622 6.1445C96.1652 5.93094 95.9873 5.77197 95.8306 5.66993L95.8686 5.7079C95.4178 5.33537 94.9574 5.05775 94.4829 4.87267H94.0937C94.0368 4.87267 93.8754 4.8608 93.6097 4.8347C93.3487 4.81097 93.0805 4.77775 92.8029 4.73979C92.5229 4.69708 92.3212 4.67335 92.1955 4.67335H90.0599L84.7543 5.90722L84.517 6.1445C84.517 6.1445 84.4031 6.17772 84.1753 6.23941C83.9523 6.30348 83.7387 6.37704 83.5299 6.45771L82.0208 7.00821L82.0588 6.97024C82.0327 6.99634 81.9354 7.02482 81.7645 7.05566C81.5937 7.08177 81.4418 7.10787 81.309 7.13159L80.6351 7.48277L80.673 7.44481C80.488 7.55396 80.3171 7.66073 80.1605 7.76751C80.0015 7.86954 79.8853 7.91937 79.8093 7.91937C79.7832 7.91937 79.6978 7.9431 79.5531 7.98581C79.406 8.02378 79.3205 8.057 79.2968 8.08072C79.2636 8.08072 79.1687 8.12818 79.0121 8.22309C78.8531 8.31326 78.6704 8.42241 78.4616 8.55529C78.3026 8.63122 78.1507 8.70478 78.006 8.77359C77.8589 8.83765 77.7616 8.8685 77.7118 8.8685C77.7118 8.8685 77.6691 8.89698 77.5884 8.95392C77.5124 9.00612 77.4602 9.02985 77.4365 9.02985L76.8765 9.3051L76.364 9.7417L76.1267 9.8556C76.2074 9.8556 76.1694 9.89831 76.0128 9.97898C75.9037 10.0312 75.8254 10.0549 75.7755 10.0549C75.6925 10.081 75.6094 10.1214 75.5288 10.1783C75.4528 10.2305 75.4149 10.2542 75.4149 10.2542L72.1688 13.5382L70.1567 16.547C70.1567 16.6561 70.1021 16.7748 69.9953 16.9076C69.9384 17.4083 69.9574 17.852 70.0523 18.2364C70.1472 18.6161 70.4035 18.9364 70.8211 19.195H70.7831C70.8401 19.252 70.9468 19.2805 71.1058 19.2805C71.5472 19.4655 71.8295 19.6364 71.9505 19.793C72.0692 19.952 72.1688 20.2557 72.2448 20.7041C72.2448 20.7801 72.259 20.8323 72.2922 20.856C72.3682 21.0458 72.38 21.2214 72.3302 21.378L72.3682 21.3306C72.316 21.6794 72.1404 21.9072 71.8366 22.0139C71.5329 22.116 71.234 22.1658 70.9445 22.1658C70.9184 22.1658 70.878 22.1658 70.8211 22.1658C70.7689 22.1658 70.719 22.1658 70.6692 22.1658H70.5458C69.6204 22.0092 68.8564 21.6248 68.2489 21.0174C68.1208 20.8347 68.0306 20.7421 67.9737 20.7421C67.8717 20.7421 67.7791 20.7018 67.6984 20.6187L66.8252 19.755C66.7232 19.5415 66.6449 19.2377 66.588 18.8439C66.5358 18.4452 66.4859 18.1415 66.4361 17.9327C66.4029 17.8829 66.3697 17.8188 66.3317 17.7429C66.2937 17.6622 66.2748 17.5791 66.2748 17.4961C66.2748 17.0737 66.3056 16.7178 66.3697 16.4331C66.4385 16.1436 66.5524 15.7971 66.7114 15.3985C66.7351 15.2917 66.7802 15.2063 66.8442 15.1422C66.913 15.0806 66.9486 15.0473 66.9486 15.0473L67.1479 14.7626C67.1978 14.5799 67.2903 14.3711 67.4232 14.1362L67.6605 13.5762L67.9737 13.3389H67.8978L69.0082 11.5261L73.3173 7.28345L81.1951 2.97441L88.9115 0.914795H90.8097C90.8596 0.914795 90.9165 0.921914 90.9806 0.933778C91.0494 0.948015 91.123 0.95276 91.1989 0.95276C91.5975 0.98598 92.084 1.0192 92.6606 1.05716C93.2419 1.09513 93.6287 1.12835 93.8185 1.15208L94.5683 1.38936H94.5303C94.7629 1.44631 95.0144 1.51749 95.2801 1.59817C95.5459 1.6741 95.7025 1.7263 95.7547 1.75003L98.3648 3.41101H98.3269C98.4597 3.48694 98.5641 3.57236 98.6401 3.66727C98.7207 3.76218 98.8014 3.86184 98.8773 3.9615L99.0767 4.23675H99.1146C99.2214 4.2937 99.3139 4.37675 99.3899 4.48352C99.4706 4.58555 99.5133 4.63538 99.5133 4.63538L100.424 5.47062L100.5 5.7079L100.662 5.82179C100.712 5.87874 100.78 5.95467 100.871 6.04959C100.965 6.13975 101.025 6.2489 101.051 6.38178V6.29636L101.412 7.00821C101.492 7.14109 101.566 7.26922 101.63 7.38786C101.692 7.50887 101.711 7.56819 101.687 7.56819C101.843 7.64412 101.924 7.7248 101.924 7.80548L102.161 8.66918C102.242 8.93494 102.323 9.21493 102.399 9.50442C102.479 9.79628 102.522 10.0336 102.522 10.2163C102.522 10.3254 102.522 10.4393 102.522 10.558C102.522 10.6718 102.534 10.7952 102.56 10.9281C102.584 11.0373 102.603 11.1512 102.617 11.2698C102.629 11.3837 102.636 11.5213 102.636 11.6779C102.66 11.7871 102.667 11.9603 102.655 12.1999C102.641 12.4349 102.61 12.5891 102.56 12.665L102.522 12.7504C102.522 12.8833 102.467 13.1633 102.361 13.5857C102.252 14.0033 102.173 14.2785 102.123 14.4114C102.071 14.5704 101.962 14.7958 101.791 15.0853C101.62 15.3772 101.492 15.548 101.412 15.5978C101.336 15.6738 101.165 15.8446 100.899 16.1104C100.633 16.3761 100.379 16.6419 100.14 16.9076C99.9048 17.1686 99.7624 17.3513 99.7126 17.4581L99.5133 17.6954C99.3543 17.9042 99.1716 18.0893 98.9628 18.2459C98.7729 18.3029 98.6638 18.412 98.6401 18.5686C98.538 18.7774 98.4075 18.8581 98.2509 18.8059L97.653 19.3944C96.8367 20.1347 95.8022 20.875 94.5493 21.6153C93.2965 22.3509 92.129 22.8753 91.047 23.1909C90.9901 23.1909 90.862 23.2075 90.6674 23.2383C90.4704 23.2644 90.3589 23.2905 90.3352 23.3143C90.2521 23.3902 90.1596 23.4282 90.0599 23.4282C90.0837 23.4282 90.0433 23.4566 89.9366 23.5136L89.6993 23.5895C89.6732 23.6156 89.5522 23.6275 89.3386 23.6275C89.1298 23.6275 88.9328 23.6275 88.7501 23.6275C88.6671 23.6536 88.5722 23.6654 88.4654 23.6654C88.3634 23.6654 88.2874 23.6654 88.2376 23.6654L88.0003 23.7888L89.3006 24.5766L92.67 27.8606L92.5467 27.7847C92.6036 27.8108 92.7412 28.0101 92.9643 28.3826C93.1849 28.7504 93.3249 29.0138 93.3819 29.1704L94.0558 30.8314L94.1317 30.9547C94.1815 31.007 94.2076 31.0971 94.2076 31.23V33.1283C94.2076 33.1805 94.1815 33.3371 94.1317 33.6028C94.0795 33.7618 93.9419 34.0347 93.7141 34.4191C93.491 34.7987 93.268 35.176 93.0402 35.5485C92.8172 35.9163 92.6653 36.1631 92.5846 36.2889L92.6321 36.2129L92.3853 36.4882C92.3094 36.5712 92.2097 36.678 92.0911 36.8109C91.9701 36.939 91.8846 37.0173 91.8348 37.0482L89.8227 38.7091L85.0296 40.7593L77.0758 41.8318C77.0236 41.8318 76.886 41.8365 76.6582 41.8508C76.4352 41.8626 76.2169 41.8816 76.0033 41.9077C75.7945 41.9386 75.6759 41.967 75.6522 41.9931C75.5691 42.0691 75.4766 42.107 75.3769 42.107H75.1396C75.0305 42.107 74.8454 42.0809 74.5796 42.0311C74.5535 42.0311 74.5346 42.024 74.5227 42.0121C74.5084 41.9979 74.4895 41.9931 74.4657 41.9931V42.6196L74.741 43.1795ZM78.4236 24.9752C78.3145 24.8993 78.1887 24.802 78.044 24.681C77.8968 24.5624 77.8375 24.4485 77.8636 24.3393L74.9403 33.0049V33.3655L74.2664 36.8488V37.798C74.3732 37.8241 74.4657 37.8431 74.5417 37.8549C74.6223 37.8692 74.703 37.8739 74.779 37.8739C74.8359 37.8739 74.8881 37.8739 74.9403 37.8739C74.9901 37.8739 75.0281 37.8739 75.0542 37.8739C75.2939 37.8241 75.5976 37.7742 75.9654 37.722C76.3379 37.6651 76.6677 37.6176 76.9525 37.5797C77.2419 37.5417 77.3891 37.5227 77.3891 37.5227L77.3131 37.5607L78.0629 37.2L82.9699 36.2129L89.5379 32.6157C89.5379 32.6157 89.5427 32.6157 89.5569 32.6157C89.5688 32.6157 89.5759 32.63 89.5759 32.6537L90.4111 31.192C90.4111 30.9785 90.3684 30.7531 90.2877 30.5181C90.2118 30.2785 90.1193 30.0792 90.0125 29.9202L90.0599 29.9582L87.1271 26.7596L85.9028 26.323C85.8197 26.3491 85.7129 26.361 85.58 26.361C85.3712 26.361 85.1482 26.2708 84.9157 26.0857C84.8065 26.0288 84.6879 25.9576 84.555 25.8674C84.4221 25.7725 84.3177 25.7132 84.2418 25.6871H83.5679C83.4848 25.6871 83.3164 25.6823 83.0649 25.6681C82.8181 25.6562 82.6401 25.6372 82.5333 25.6111C82.4574 25.5874 82.3839 25.5542 82.315 25.5162C82.251 25.4735 82.2201 25.4498 82.2201 25.4498H81.9069C81.8808 25.4498 81.8334 25.4451 81.7645 25.4308C81.7005 25.4189 81.6412 25.4118 81.5842 25.4118C81.5083 25.3881 81.4347 25.3739 81.3659 25.3739C81.3018 25.3739 81.2568 25.3739 81.233 25.3739H79.8093L79.5341 25.2505C79.5578 25.2766 79.5056 25.2837 79.3727 25.2695C79.2399 25.2576 79.1188 25.2386 79.0121 25.2125H78.8602L78.4236 24.9752ZM84.517 39.459C84.6238 39.459 84.6902 39.4969 84.7163 39.5728L85.0675 39.7342C85.0675 39.5017 84.9489 39.383 84.7163 39.383C84.6333 39.383 84.5669 39.4091 84.517 39.459ZM97.2164 18.4073C97.2164 18.4073 97.2211 18.4073 97.2354 18.4073C97.2472 18.4073 97.2543 18.3954 97.2543 18.3693C97.2282 18.3693 97.2164 18.3835 97.2164 18.4073ZM96.9791 18.8818V18.9198L97.0171 18.8818H96.9791Z" fill="white"/>
<path d="M102.279 34.5519C101.961 34.5519 101.633 34.4285 101.292 34.1817C100.95 33.9302 100.684 33.6834 100.494 33.4414C100.471 33.3916 100.333 33.1543 100.086 32.7296C99.8348 32.3072 99.6544 32.0035 99.5453 31.8184C99.3626 31.453 99.2321 31.0662 99.1561 30.6605C99.0755 30.25 99.0209 29.8323 98.9948 29.4076C98.9948 29.3578 98.9829 29.2154 98.9568 28.9805C98.9331 28.7408 98.9141 28.5107 98.8999 28.2876C98.888 28.0598 98.8809 27.9175 98.8809 27.8605C98.85 27.3622 98.888 26.8734 98.9948 26.3989C99.1039 25.9243 99.2083 25.4379 99.308 24.9372C99.308 24.9135 99.308 24.8565 99.308 24.7664C99.308 24.6714 99.308 24.624 99.308 24.624C99.3412 24.4911 99.3982 24.3535 99.4788 24.2064C99.5548 24.0616 99.607 23.9359 99.6307 23.8267C99.7066 23.7508 99.7446 23.6464 99.7446 23.5135C99.7446 23.4898 99.7446 23.4518 99.7446 23.3996C99.7446 23.3427 99.7446 23.3023 99.7446 23.2762C99.7707 23.2525 99.811 23.1789 99.868 23.0579C99.9202 22.9393 99.9581 22.8657 99.9819 22.8396C100.141 22.5501 100.286 22.2464 100.418 21.9285C100.551 21.6129 100.698 21.2973 100.855 20.9793C100.855 20.9793 100.869 20.9675 100.893 20.9414C100.919 20.9176 100.931 20.9034 100.931 20.9034C101.145 20.557 101.315 20.2533 101.444 19.9922C101.576 19.7265 101.738 19.437 101.928 19.119C101.951 19.119 101.977 19.1072 102.004 19.0811C102.027 19.0573 102.041 19.0431 102.041 19.0431C102.065 19.0194 102.122 18.9458 102.212 18.8248C102.307 18.7062 102.355 18.6326 102.355 18.6065C102.386 18.5828 102.414 18.5567 102.44 18.5306C102.464 18.4997 102.478 18.4831 102.478 18.4831C102.528 18.4333 102.625 18.3028 102.772 18.094C102.917 17.8804 103.002 17.7594 103.029 17.7333C103.161 17.5767 103.38 17.3513 103.683 17.0594C103.987 16.7699 104.284 16.4947 104.576 16.2337C104.865 15.9679 105.036 15.8113 105.088 15.7591C105.138 15.7283 105.28 15.6429 105.515 15.5029C105.755 15.3581 106.021 15.1991 106.313 15.0283C106.602 14.8527 106.816 14.7246 106.948 14.6486C106.972 14.6486 107.029 14.6368 107.119 14.6107C107.214 14.5869 107.276 14.5585 107.309 14.5253C107.333 14.5253 107.366 14.5134 107.404 14.4873C107.442 14.4636 107.473 14.4493 107.499 14.4493C107.632 14.4256 107.85 14.3876 108.154 14.3354C108.458 14.2785 108.761 14.231 109.065 14.1931C109.369 14.1551 109.573 14.1242 109.682 14.0981C109.706 14.0981 109.744 14.0981 109.796 14.0981C109.853 14.0981 109.893 14.0981 109.919 14.0981C110.052 14.1242 110.261 14.1503 110.546 14.1741C110.835 14.2002 110.994 14.212 111.02 14.212C111.153 14.2381 111.336 14.3046 111.571 14.4114C111.81 14.5205 111.943 14.6368 111.969 14.7625L112.643 16.5089C112.643 16.5089 112.643 16.5232 112.643 16.5469C112.643 16.573 112.643 16.5991 112.643 16.6228C112.617 16.8127 112.558 17.0784 112.463 17.4201C112.373 17.7618 112.33 17.9326 112.33 17.9326L110.669 20.4668C110.643 20.4929 110.558 20.5712 110.413 20.7041C110.266 20.837 110.18 20.9295 110.157 20.9793C110.073 21.0553 110.033 21.1359 110.033 21.2166C109.981 21.2925 109.836 21.4586 109.597 21.7102C109.362 21.9641 109.124 22.2179 108.885 22.4695C108.65 22.7162 108.479 22.8776 108.372 22.9535C108.346 22.9867 108.206 23.0817 107.955 23.2383C107.708 23.3972 107.444 23.5562 107.167 23.7128C106.887 23.8718 106.668 23.9881 106.512 24.064C106.486 24.0901 106.381 24.1257 106.199 24.1684C106.014 24.2064 105.907 24.2396 105.876 24.2633C105.85 24.2894 105.724 24.4152 105.496 24.643C105.273 24.866 105.138 25.0013 105.088 25.0511C105.012 25.108 104.834 25.2172 104.557 25.3738C104.277 25.5328 104.101 25.6372 104.025 25.687C103.809 25.7962 103.57 25.8294 103.304 25.7914C103.043 25.7487 102.848 25.8341 102.715 26.0477C102.689 26.0738 102.642 26.1402 102.573 26.247C102.509 26.349 102.478 26.425 102.478 26.4748L101.842 29.7208C101.766 29.9367 101.766 30.1622 101.842 30.3947C101.842 30.5039 101.885 30.7222 101.975 31.0496C102.07 31.3794 102.132 31.5977 102.165 31.7045C102.165 31.7804 102.203 31.8184 102.279 31.8184C102.279 31.8184 102.31 31.835 102.374 31.8659C102.442 31.892 102.478 31.9181 102.478 31.9418C102.528 32.0177 102.535 32.0794 102.497 32.1221C102.459 32.1601 102.49 32.2052 102.592 32.255L102.715 32.0177C103.005 32.2835 103.361 32.4163 103.778 32.4163C103.968 32.4163 104.113 32.4045 104.215 32.3784C104.481 32.3475 104.815 32.3001 105.221 32.236C105.632 32.1743 106.002 32.1103 106.332 32.0462C106.666 31.9774 106.846 31.9418 106.873 31.9418L111.457 28.971C111.538 28.8642 111.637 28.7669 111.751 28.6768C111.87 28.5819 111.984 28.4964 112.093 28.4205L117.038 22.8396H117.674C117.697 22.8396 117.735 22.9251 117.788 23.0959C117.844 23.2667 117.885 23.4067 117.911 23.5135C117.961 23.7484 117.835 24.064 117.531 24.4626C117.228 24.8565 117.023 25.1603 116.924 25.3738C116.924 25.3999 116.924 25.4402 116.924 25.4972C116.924 25.5494 116.924 25.5731 116.924 25.5731L113.516 29.2083L113.403 29.4076L108.496 32.9289C108.462 32.9289 108.296 33.0024 107.993 33.1472C107.694 33.2943 107.359 33.4462 106.986 33.6028C106.619 33.7617 106.315 33.8946 106.075 34.0014C106.049 34.0275 105.983 34.0536 105.876 34.0773C105.774 34.1034 105.696 34.1153 105.639 34.1153C105.613 34.1153 105.508 34.1153 105.325 34.1153C105.14 34.1153 105.036 34.1153 105.012 34.1153C104.929 34.1153 104.682 34.1509 104.272 34.2197C103.866 34.2838 103.638 34.3146 103.589 34.3146C103.373 34.3407 103.152 34.3882 102.924 34.457C102.701 34.521 102.488 34.5519 102.279 34.5519ZM109.16 31.8184C109.084 31.8184 109.084 31.8611 109.16 31.9418L110.033 31.5052C109.931 31.5052 109.772 31.5242 109.559 31.5621C109.35 31.6001 109.217 31.6855 109.16 31.8184ZM103.351 24.064C103.351 24.0901 103.351 24.1755 103.351 24.3203C103.351 24.4674 103.351 24.567 103.351 24.624L103.702 24.5006L107.622 22.0898L110.232 19.119C110.365 19.1451 110.444 19.1001 110.47 18.9862C110.493 18.8675 110.493 18.7655 110.47 18.6824C110.759 18.2909 110.997 17.8638 111.182 17.4011C111.364 16.9408 111.419 16.4591 111.343 15.9584C111.234 15.5361 111.011 15.3225 110.669 15.3225C110.617 15.3486 110.491 15.4151 110.289 15.5218C110.092 15.6239 109.969 15.7022 109.919 15.7591C109.734 15.892 109.492 16.0984 109.188 16.3761C108.885 16.6489 108.733 16.7984 108.733 16.8221C108.441 17.2208 108.083 17.693 107.66 18.2363C107.236 18.775 106.858 19.2567 106.531 19.679C106.201 20.0966 106.023 20.3197 105.999 20.3434L103.589 23.6274C103.555 23.6535 103.515 23.7199 103.465 23.8267C103.413 23.9359 103.375 24.0142 103.351 24.064ZM109.919 20.1061C109.862 20.1061 109.834 20.1488 109.834 20.2295C109.834 20.3055 109.862 20.3434 109.919 20.3434C109.969 20.3434 109.995 20.3055 109.995 20.2295C109.995 20.1488 109.969 20.1061 109.919 20.1061ZM106.436 19.119C106.41 19.1451 106.37 19.2187 106.313 19.3373C106.26 19.4584 106.222 19.5438 106.199 19.5936C106.298 19.5699 106.455 19.4655 106.664 19.2804C106.877 19.0977 107.084 18.896 107.281 18.6729C107.482 18.4452 107.596 18.2791 107.622 18.1699C107.38 18.1699 107.157 18.2838 106.948 18.5116C106.74 18.7346 106.569 18.9363 106.436 19.119ZM107.86 17.7333V17.8092L107.936 17.7333H107.86Z" fill="white"/>
<path d="M114.661 33.5648C114.637 33.5411 114.573 33.4675 114.471 33.3465C114.364 33.2279 114.281 33.1543 114.224 33.1282C113.517 32.255 113.071 31.3059 112.886 30.2808C112.703 29.251 112.637 28.1927 112.687 27.1107C112.687 27.004 112.722 26.8023 112.791 26.5033C112.855 26.1996 112.9 26.0074 112.924 25.9243C113.033 25.5826 113.213 25.0891 113.465 24.4437C113.712 23.7983 113.987 23.1196 114.291 22.403C114.594 21.6888 114.905 21.0316 115.221 20.4289C115.536 19.8214 115.823 19.3848 116.084 19.1191L119.368 15.7591C119.399 15.7283 119.61 15.6025 120.004 15.3795C120.403 15.1588 120.692 14.9951 120.878 14.8859C120.901 14.8622 120.958 14.8361 121.048 14.81C121.143 14.7792 121.191 14.7626 121.191 14.7626C121.248 14.7388 121.366 14.6819 121.551 14.5917C121.734 14.4968 121.839 14.4375 121.865 14.4114C121.888 14.4114 121.981 14.4304 122.14 14.4683C122.297 14.5063 122.389 14.5253 122.415 14.5253C122.446 14.5253 122.482 14.5253 122.52 14.5253C122.558 14.5253 122.6 14.5253 122.652 14.5253C122.785 14.5253 122.918 14.5253 123.051 14.5253C123.184 14.5253 123.262 14.5253 123.288 14.5253C123.338 14.5585 123.454 14.6202 123.64 14.7151C123.829 14.8053 123.936 14.8622 123.962 14.8859C123.986 14.8859 124.09 14.8931 124.275 14.9049C124.465 14.9192 124.572 14.9381 124.598 14.9619C124.622 14.988 124.66 15.0473 124.712 15.1422C124.769 15.2371 124.809 15.2988 124.835 15.3225C124.885 15.3486 125.035 15.4459 125.282 15.6168C125.533 15.7876 125.673 15.9015 125.699 15.9585C125.699 15.9585 125.711 15.9846 125.737 16.0344C125.768 16.0866 125.785 16.1388 125.785 16.1957C125.861 16.4045 125.97 16.63 126.117 16.8696C126.262 17.1045 126.309 17.3537 126.259 17.6194H126.335C126.359 17.6194 126.397 17.5483 126.449 17.4011C126.506 17.2564 126.546 17.1425 126.572 17.0594C126.572 17.0096 126.584 16.9123 126.61 16.7652C126.641 16.6205 126.67 16.5351 126.696 16.509C126.719 16.4591 126.824 16.2693 127.009 15.9395C127.192 15.6049 127.336 15.3581 127.446 15.1992C127.521 15.0995 127.588 15.0615 127.645 15.0853C127.778 15.1114 127.953 15.1517 128.176 15.2086C128.397 15.2608 128.523 15.2988 128.556 15.3225L130.056 17.2588C130.136 17.2588 130.217 17.3015 130.293 17.3822C130.293 17.5411 130.298 17.7049 130.312 17.8757C130.324 18.0465 130.359 18.2126 130.416 18.3692C130.416 18.3123 130.428 18.234 130.454 18.132C130.478 18.0252 130.53 17.9587 130.606 17.9326L130.843 18.132L129.619 24.14C129.41 24.1969 129.306 24.3179 129.306 24.5006C129.306 24.5837 129.277 24.7759 129.22 25.0796C129.168 25.3786 129.126 25.6728 129.088 25.9623C129.05 26.2541 129.014 26.4535 128.983 26.5602C128.957 26.5863 128.945 26.6409 128.945 26.7216C128.945 26.7975 128.957 26.8497 128.983 26.8734C128.957 27.0063 128.898 27.2436 128.803 27.5853C128.713 27.927 128.634 28.2663 128.566 28.6009C128.501 28.9307 128.456 29.1585 128.433 29.2842C128.357 29.5002 128.357 29.7256 128.433 29.9581L128.632 29.8442L134.327 23.8267C134.327 23.8267 134.331 23.822 134.346 23.8078C134.358 23.7959 134.379 23.7888 134.412 23.7888C134.595 23.7888 134.711 23.8434 134.763 23.9501C134.844 24.1352 134.839 24.3061 134.744 24.4627C134.649 24.6216 134.576 24.7806 134.526 24.9372C134.5 25.0132 134.464 25.1911 134.422 25.4687C134.384 25.7487 134.35 25.9243 134.327 26.0002L132.229 28.6578L131.166 29.4076C131.166 29.4337 131.15 29.4741 131.119 29.531C131.093 29.5832 131.066 29.6069 131.043 29.6069C131.017 29.6591 130.877 29.811 130.625 30.0625C130.378 30.3093 130.229 30.4612 130.179 30.5181C130.146 30.5181 130.105 30.5656 130.056 30.6605C130.003 30.7506 129.965 30.8076 129.942 30.8313C129.676 31.1232 129.391 31.3889 129.088 31.6286C128.784 31.8635 128.485 32.1126 128.195 32.3784C128.169 32.3784 128.096 32.4259 127.977 32.5208C127.856 32.6109 127.782 32.6679 127.759 32.6916C127.733 32.7438 127.673 32.8696 127.578 33.0713C127.488 33.2682 127.446 33.3916 127.446 33.4414C127.237 33.5506 127.066 33.6028 126.933 33.6028C126.748 33.6028 126.549 33.5529 126.335 33.4509C126.126 33.3441 125.941 33.2374 125.785 33.1282C125.758 33.0784 125.599 32.9075 125.31 32.6157C125.018 32.3262 124.819 32.1269 124.712 32.0177C124.712 32.0177 124.698 31.994 124.674 31.9418C124.648 31.8849 124.622 31.8445 124.598 31.8184C124.413 31.3201 124.287 30.8669 124.219 30.4612C124.154 30.0507 124.135 29.5951 124.162 29.0944L124.038 28.971L120.128 32.815C120.019 32.8909 119.767 33.076 119.368 33.3655C118.975 33.6574 118.714 33.8282 118.581 33.878C118.472 33.9302 118.22 34.0204 117.821 34.1533C117.427 34.2862 117.166 34.3787 117.034 34.4285C116.905 34.4285 116.763 34.4285 116.606 34.4285C116.448 34.4285 116.303 34.4285 116.17 34.4285C116.061 34.3787 115.809 34.2363 115.411 34.0014C115.019 33.7618 114.77 33.617 114.661 33.5648ZM115.971 31.7045C116.153 32.0462 116.369 32.3191 116.616 32.5208C116.867 32.7177 117.195 32.815 117.594 32.815C117.802 32.815 118.025 32.7343 118.267 32.5682C118.4 32.4686 118.609 32.3262 118.894 32.1411C119.183 31.9513 119.342 31.8445 119.368 31.8184L124.275 26.5602C124.249 26.2945 124.268 26.0525 124.332 25.8294C124.401 25.6016 124.423 25.3715 124.399 25.1365L125.348 20.856C125.372 20.856 125.398 20.8322 125.424 20.78C125.448 20.7302 125.462 20.6922 125.462 20.6661C125.493 20.6092 125.533 20.4573 125.585 20.2106C125.635 19.959 125.673 19.7787 125.699 19.6696C125.73 19.5438 125.685 19.4418 125.566 19.3658C125.445 19.2852 125.348 19.2021 125.272 19.1191C125.239 18.9862 125.163 18.6967 125.044 18.2459C124.93 17.7974 124.859 17.5103 124.835 17.3822C124.809 17.2255 124.788 17.0666 124.769 16.9076C124.755 16.751 124.657 16.6181 124.475 16.509C124.399 16.4852 124.221 16.4473 123.943 16.3951C123.663 16.3381 123.488 16.2978 123.412 16.2717C123.303 16.2717 123.184 16.2859 123.051 16.3096C122.918 16.3357 122.814 16.4022 122.738 16.509C122.712 16.5351 122.638 16.6395 122.52 16.8222C122.399 17.0072 122.325 17.1259 122.301 17.1828C122.301 17.1828 122.273 17.1971 122.216 17.2208C122.164 17.2469 122.126 17.2588 122.102 17.2588L119.454 20.856L118.267 22.9535C118.184 22.9535 118.144 22.9963 118.144 23.0769C118.092 23.1861 117.995 23.3427 117.85 23.5515C117.703 23.7603 117.617 23.8932 117.594 23.9501C117.594 23.9762 117.577 24.0498 117.546 24.1684C117.52 24.2823 117.508 24.3559 117.508 24.3867C117.482 24.4128 117.408 24.5244 117.29 24.7189C117.176 24.9159 117.091 25.0559 117.034 25.1365C117.034 25.1365 117.019 25.1555 116.996 25.1935C116.97 25.2315 116.958 25.2504 116.958 25.2504C116.932 25.2765 116.92 25.3169 116.92 25.3738C116.92 25.426 116.932 25.4498 116.958 25.4498L116.17 27.2341C116.22 27.3362 116.203 27.4667 116.122 27.6233C116.046 27.7822 115.994 27.9033 115.971 27.9839C115.785 28.5676 115.714 29.187 115.752 29.8442C115.79 30.5039 115.861 31.1232 115.971 31.7045ZM127.559 30.1574C127.559 30.1835 127.559 30.2571 127.559 30.3757C127.559 30.4968 127.559 30.5703 127.559 30.594C127.616 30.6201 127.695 30.6083 127.797 30.5561C127.904 30.5062 127.97 30.4517 127.996 30.3947L128.746 26.5602V26.4368L129.505 22.2892H129.619V23.2762L130.179 20.2295C130.255 20.016 130.255 19.8285 130.179 19.6696C130.179 19.6696 130.151 19.6458 130.094 19.5936C130.041 19.5438 129.992 19.5058 129.942 19.4797C129.942 19.4489 129.925 19.4323 129.894 19.4323C129.868 19.4323 129.856 19.4489 129.856 19.4797L128.195 26.7975C128.276 27.1653 128.217 27.507 128.015 27.8226C127.818 28.1405 127.695 28.4846 127.645 28.8571C127.645 28.8832 127.645 28.9568 127.645 29.0754C127.645 29.1893 127.645 29.2605 127.645 29.2842C127.645 29.3175 127.628 29.4598 127.597 29.7113C127.571 29.9581 127.559 30.1076 127.559 30.1574ZM130.293 19.0052C130.241 19.0052 130.217 19.0479 130.217 19.1286C130.217 19.2045 130.241 19.2424 130.293 19.2424C130.343 19.2424 130.369 19.2045 130.369 19.1286C130.369 19.0479 130.343 19.0052 130.293 19.0052ZM125.785 18.6825C125.758 18.6587 125.747 18.6991 125.747 18.8058C125.747 18.9079 125.758 18.9458 125.785 18.9197C125.834 18.896 125.861 18.858 125.861 18.8058C125.861 18.7489 125.834 18.7086 125.785 18.6825ZM125.462 16.8222C125.436 16.8222 125.424 16.8459 125.424 16.8886C125.424 16.9266 125.436 16.9456 125.462 16.9456C125.543 16.8886 125.543 16.8483 125.462 16.8222ZM125.272 16.1957C125.215 16.1957 125.187 16.229 125.187 16.2907C125.187 16.3547 125.215 16.3856 125.272 16.3856C125.322 16.3856 125.348 16.3547 125.348 16.2907C125.348 16.229 125.322 16.1957 125.272 16.1957Z" fill="white"/>
<path d="M135.119 37.836C134.694 37.836 134.191 37.7197 133.609 37.4848C133.035 37.2451 132.589 36.9912 132.271 36.7255C132.088 36.5926 131.944 36.4289 131.835 36.2319C131.728 36.0374 131.583 35.8855 131.398 35.7764C131.189 35.252 131.061 34.7465 131.009 34.2577C130.952 33.7713 130.9 33.2493 130.847 32.6917C130.847 32.668 130.847 32.63 130.847 32.5778C130.847 32.5208 130.847 32.4924 130.847 32.4924L131.597 28.2213C131.597 28.1715 131.597 28.0931 131.597 27.984C131.597 27.8772 131.597 27.8108 131.597 27.7847C131.623 27.761 131.652 27.7349 131.683 27.7087C131.709 27.685 131.721 27.6708 131.721 27.6708L132.271 25.2505V25.1746L132.907 22.0899L133.021 21.8906L136.865 9.85562C136.832 9.85562 136.803 9.85562 136.78 9.85562C136.753 9.85562 136.715 9.85562 136.666 9.85562C136.317 9.85562 135.992 9.91731 135.688 10.036C135.389 10.157 135.083 10.2424 134.767 10.2922C134.71 10.2922 134.608 10.2922 134.464 10.2922C134.317 10.2922 134.245 10.2922 134.245 10.2922L132.907 8.99191C132.8 8.85904 132.765 8.66921 132.803 8.42244C132.841 8.17092 132.955 8.03092 133.144 8.00482L135.669 7.33094C135.669 7.35704 135.693 7.3689 135.745 7.3689C135.802 7.3689 135.842 7.35704 135.868 7.33094C135.925 7.33094 136.077 7.30009 136.324 7.23602C136.575 7.16721 136.715 7.13162 136.742 7.13162C136.742 7.13162 136.761 7.13162 136.799 7.13162C136.841 7.13162 136.865 7.13162 136.865 7.13162C137.074 7.07467 137.361 7.00823 137.729 6.9323C138.101 6.85163 138.289 6.79705 138.289 6.77095L138.403 6.69502C138.403 6.67129 138.5 6.46248 138.697 6.06859C138.898 5.66996 139.05 5.36387 139.152 5.14794C139.209 5.09811 139.238 5.02218 139.238 4.92015C139.238 4.81337 139.276 4.74693 139.352 4.72083L140.699 1.42735C140.749 1.30159 140.873 1.2138 141.07 1.16159C141.271 1.10465 141.44 1.07617 141.573 1.07617C141.698 1.07617 141.834 1.09041 141.981 1.11414C142.126 1.14024 142.239 1.18058 142.322 1.23752C142.372 1.26363 142.436 1.31108 142.512 1.37989C142.593 1.44396 142.636 1.50091 142.636 1.55074C142.659 1.57684 142.667 1.6504 142.655 1.76904C142.64 1.89005 142.636 1.96361 142.636 1.98734C142.636 1.98734 142.655 2.00157 142.693 2.0253C142.735 2.0514 142.759 2.0775 142.759 2.10123C142.809 2.21038 142.887 2.31716 142.996 2.42394C142.996 2.45004 142.989 2.49038 142.977 2.54732C142.963 2.59953 142.97 2.62325 142.996 2.62325C142.996 2.64935 143.027 2.74189 143.091 2.8985C143.16 3.05748 143.196 3.15002 143.196 3.17375C143.196 3.19985 143.196 3.25442 143.196 3.3351C143.196 3.41103 143.196 3.4751 143.196 3.52493C143.162 3.63408 143.094 3.88085 142.987 4.26525C142.885 4.6449 142.809 4.90116 142.759 5.03404C142.759 5.06014 142.723 5.1337 142.655 5.25234C142.591 5.37336 142.56 5.44691 142.56 5.47064C142.477 5.62962 142.436 5.77436 142.436 5.90724C142.467 5.90724 142.489 5.91436 142.503 5.92622C142.515 5.94046 142.534 5.94521 142.56 5.94521C142.667 5.94521 142.733 5.90487 142.759 5.82182L143.509 4.16084L143.623 4.04695C143.68 4.33881 143.606 4.63066 143.404 4.92015C143.208 5.20489 143.139 5.50623 143.196 5.82182H143.509L161.001 2.53783H161.912C161.803 2.53783 161.611 2.57342 161.334 2.64224C161.054 2.7063 160.776 2.77274 160.498 2.84155C160.225 2.90562 160.036 2.9507 159.929 2.97443C159.82 3.00053 159.706 3.02901 159.587 3.05985C159.473 3.08595 159.362 3.12392 159.255 3.17375H159.616C159.748 3.15002 159.986 3.09782 160.327 3.02189C160.669 2.94121 161.016 2.86054 161.371 2.78461C161.732 2.70393 161.974 2.64935 162.102 2.62325C162.235 2.62325 162.406 2.62325 162.615 2.62325C162.828 2.62325 162.949 2.62325 162.976 2.62325L163.099 2.73715H163.963L164.086 2.86054C163.953 2.88664 163.706 2.94121 163.346 3.02189C162.99 3.09782 162.636 3.17849 162.283 3.25917C161.927 3.3351 161.685 3.3873 161.552 3.41103C161.469 3.41103 161.277 3.41103 160.973 3.41103C160.674 3.41103 160.472 3.41103 160.365 3.41103L156.768 4.16084H157.081C157.29 4.11101 157.691 4.05407 158.287 3.99C158.88 3.92119 159.466 3.84763 160.043 3.7717C160.624 3.69102 161.023 3.63645 161.239 3.61035C161.364 3.61035 161.659 3.61035 162.121 3.61035C162.582 3.61035 162.866 3.61035 162.976 3.61035C162.9 3.63645 162.715 3.69577 162.425 3.79068C162.133 3.88085 161.848 3.97102 161.571 4.06593C161.291 4.1561 161.101 4.22728 161.001 4.28423C160.918 4.31033 160.797 4.36965 160.641 4.46456C160.482 4.55473 160.337 4.59744 160.204 4.59744C160.204 4.59744 160.197 4.59744 160.185 4.59744C160.171 4.59744 160.152 4.59744 160.128 4.59744V4.48355C160.102 4.48355 160.083 4.48355 160.071 4.48355C160.057 4.48355 160.036 4.48355 160.005 4.48355C159.846 4.48355 159.741 4.54999 159.692 4.68286C159.639 4.811 159.573 4.87269 159.492 4.87269C159.44 4.87269 159.402 4.86083 159.378 4.83473L143.196 8.31803C143.196 8.31803 143.179 8.31803 143.148 8.31803C143.122 8.31803 143.096 8.31803 143.072 8.31803C142.996 8.34413 142.863 8.38447 142.674 8.44142C142.489 8.49362 142.372 8.53158 142.322 8.55531C142.322 8.55531 142.308 8.56955 142.284 8.59328C142.258 8.61938 142.23 8.63124 142.199 8.63124L139.352 15.7592C139.352 15.7592 139.337 15.7734 139.314 15.7972C139.288 15.8233 139.276 15.8494 139.276 15.8731C139.25 15.8992 139.209 16.0202 139.152 16.2338C139.1 16.4426 139.062 16.5731 139.038 16.6229C139.038 16.6561 139.038 16.6965 139.038 16.7463C139.038 16.7985 139.038 16.8365 139.038 16.8602C139.012 16.9171 138.939 17.1165 138.82 17.4581C138.699 17.7998 138.626 17.9968 138.602 18.0466C138.602 18.0798 138.602 18.1202 138.602 18.17C138.602 18.2222 138.602 18.2602 138.602 18.2839C138.602 18.3171 138.573 18.3859 138.516 18.4927C138.464 18.5947 138.426 18.6707 138.403 18.7205C138.293 18.6446 138.255 18.5663 138.289 18.4832C138.338 18.3503 138.414 18.1083 138.516 17.7524C138.623 17.3988 138.69 17.1687 138.716 17.0595C138.716 17.0595 138.728 17.0287 138.754 16.9646C138.785 16.8958 138.813 16.8602 138.839 16.8602C138.839 16.7843 138.882 16.5636 138.972 16.1958C139.067 15.8233 139.126 15.5979 139.152 15.5219C139.183 15.4412 139.262 15.2538 139.39 14.9619C139.523 14.6725 139.655 14.383 139.788 14.0982C139.921 13.8087 139.999 13.6332 140.026 13.5762C140.026 13.4504 140.066 13.3081 140.149 13.1491C140.149 13.1183 140.149 13.0898 140.149 13.0637C140.149 13.04 140.149 13.0257 140.149 13.0257L141.649 8.99191V8.75463C141.649 8.75463 141.634 8.75463 141.611 8.75463C141.585 8.75463 141.573 8.75463 141.573 8.75463C141.539 8.78073 141.499 8.83531 141.449 8.91598C141.397 8.99191 141.359 9.04412 141.335 9.06784L139.352 14.2121C139.432 14.2952 139.432 14.3355 139.352 14.3355C139.193 14.7531 139.029 15.1802 138.858 15.6168C138.687 16.0534 138.535 16.4972 138.403 16.9456C138.327 17.0216 138.327 17.1022 138.403 17.1829L136.865 21.7672C136.675 22.0092 136.566 22.275 136.542 22.5645C136.516 22.8563 136.478 23.1316 136.428 23.3902C136.402 23.4733 136.343 23.72 136.248 24.1305C136.153 24.5363 136.106 24.7641 136.106 24.8139C136.106 24.8471 136.106 24.8685 136.106 24.8803C136.106 24.8946 136.106 24.9136 136.106 24.9373C136.163 25.0464 136.21 25.0085 136.248 24.8234C136.286 24.6336 136.345 24.5268 136.428 24.5007C136.428 24.5007 136.428 24.5149 136.428 24.5387C136.428 24.5648 136.428 24.5932 136.428 24.6241C136.402 24.6763 136.343 24.8946 136.248 25.279C136.153 25.6586 136.106 25.8746 136.106 25.9244C136.03 26.2423 135.944 26.5579 135.849 26.8735C135.759 27.1915 135.728 27.5355 135.754 27.9081L135.432 27.5474C135.356 27.7894 135.289 28.0409 135.232 28.3067C135.18 28.5677 135.168 28.8287 135.194 29.0945C135.275 29.1704 135.356 29.0731 135.432 28.8002C135.512 28.5226 135.593 28.3684 135.669 28.3352C135.7 28.525 135.688 28.7409 135.631 28.9806C135.579 29.2155 135.474 29.3958 135.318 29.5216L135.194 29.3318C135.036 29.4338 134.957 29.6046 134.957 29.8443C134.957 30.0792 134.971 30.2619 135.005 30.3948C135.081 30.345 135.138 30.2287 135.176 30.0436C135.218 29.8538 135.304 29.7873 135.432 29.8443C135.432 29.8704 135.432 29.8965 135.432 29.9202C135.432 29.9463 135.432 29.9582 135.432 29.9582C135.406 30.1741 135.358 30.4755 135.289 30.8599C135.225 31.2395 135.168 31.5954 135.119 31.9229C135.066 32.2527 135.028 32.4425 135.005 32.4924C134.971 32.5185 134.938 32.6205 134.9 32.7961C134.862 32.9669 134.817 33.0784 134.767 33.1283C134.734 32.8127 134.758 32.4971 134.834 32.1791C134.914 31.8636 134.931 31.5598 134.881 31.268H134.767C134.767 31.268 134.725 31.4934 134.644 31.9419C134.568 32.3927 134.502 32.7463 134.445 33.0049C134.445 33.0381 134.445 33.0666 134.445 33.0903C134.445 33.1164 134.445 33.1283 134.445 33.1283C134.445 33.1805 134.43 33.3134 134.407 33.5269C134.381 33.7357 134.355 33.8662 134.331 33.9161C134.589 34.075 134.665 34.3052 134.559 34.6089C134.457 34.9126 134.419 35.1855 134.445 35.4252C134.525 35.5011 134.568 35.5011 134.568 35.4252C134.568 35.4252 134.58 35.4133 134.606 35.3872C134.63 35.3564 134.656 35.3279 134.682 35.3018C134.739 35.2781 134.957 35.1737 135.337 34.9886C135.717 34.8059 135.935 34.6991 135.992 34.6659C136.042 34.6421 136.12 34.5899 136.229 34.514C136.336 34.4333 136.402 34.3788 136.428 34.3527L144.496 23.5136C144.496 23.5136 144.508 23.5089 144.534 23.4946C144.558 23.4827 144.586 23.4756 144.619 23.4756C144.828 23.4756 144.933 23.5278 144.933 23.6275C144.956 23.6536 144.963 23.7604 144.952 23.9502C144.937 24.1353 144.933 24.2397 144.933 24.2634C144.956 24.3156 145.037 24.4793 145.17 24.757C145.303 25.037 145.369 25.2007 145.369 25.2505C145.445 25.3336 145.445 25.4119 145.369 25.4878C145.184 25.7796 144.973 26.1237 144.733 26.5223C144.498 26.9162 144.316 27.2983 144.183 27.6708C144.157 27.6969 144.116 27.8369 144.059 28.0884C144.007 28.3352 143.969 28.4847 143.945 28.5345C143.945 28.5345 143.929 28.5582 143.898 28.6009C143.872 28.6389 143.86 28.6579 143.86 28.6579C143.732 28.9189 143.568 29.2416 143.366 29.626C143.17 30.0056 143.046 30.3426 142.996 30.6321L140.576 33.5649C140.55 33.591 140.557 33.6313 140.595 33.6883C140.638 33.7405 140.673 33.7784 140.699 33.8022L137.529 36.9628C137.477 36.939 137.387 36.9248 137.254 36.9248C136.993 36.9248 136.791 37.0268 136.647 37.2285C136.5 37.4255 136.319 37.5489 136.106 37.5987C135.712 37.7577 135.384 37.836 135.119 37.836ZM137.415 36.2889C137.389 36.3221 137.361 36.3506 137.33 36.3743C137.304 36.4004 137.292 36.4123 137.292 36.4123C137.349 36.4123 137.427 36.3885 137.529 36.3363C137.636 36.2794 137.703 36.2391 137.729 36.213C137.729 36.213 137.781 36.175 137.89 36.0991C137.997 36.0184 138.023 35.9377 137.966 35.8618C137.864 35.9899 137.778 36.0682 137.71 36.0991C137.646 36.1252 137.548 36.1892 137.415 36.2889ZM137.292 35.6625C137.292 35.6886 137.323 35.7289 137.387 35.7858C137.456 35.838 137.503 35.8618 137.529 35.8618C137.56 35.8618 137.615 35.838 137.691 35.7858C137.771 35.7289 137.826 35.6886 137.852 35.6625C137.826 35.5557 137.733 35.5011 137.577 35.5011C137.418 35.5011 137.323 35.5557 137.292 35.6625ZM138.915 34.9886C138.915 34.9886 138.915 35.0028 138.915 35.0265C138.915 35.0526 138.915 35.0787 138.915 35.1025L139.276 34.7893C139.25 34.7893 139.195 34.8177 139.114 34.8747C139.038 34.9269 138.972 34.9648 138.915 34.9886ZM139.475 34.4286V34.552L140.263 33.9161H140.026L139.475 34.4286ZM140.026 33.1283C140.026 33.1544 140.026 33.1947 140.026 33.2517C140.026 33.3039 140.026 33.3418 140.026 33.3656C140.075 33.3157 140.154 33.2374 140.263 33.1283C140.37 33.0215 140.436 32.9551 140.462 32.929C140.462 32.9052 140.462 32.8791 140.462 32.853C140.462 32.8293 140.462 32.8151 140.462 32.8151C140.436 32.8412 140.381 32.8791 140.301 32.929C140.225 32.9812 140.173 33.0049 140.149 33.0049C140.116 33.0381 140.087 33.0666 140.064 33.0903C140.037 33.1164 140.026 33.1283 140.026 33.1283ZM140.149 32.6917L140.026 32.8151H140.149V32.6917ZM141.449 31.7046C141.423 31.6809 141.388 31.6856 141.345 31.7236C141.307 31.7615 141.302 31.7948 141.335 31.8185C141.385 31.8446 141.423 31.8375 141.449 31.7995C141.473 31.7615 141.473 31.7307 141.449 31.7046ZM134.881 30.8314C134.829 30.8314 134.805 30.8741 134.805 30.9548C134.805 31.0307 134.829 31.0687 134.881 31.0687C134.931 31.0687 134.957 31.0307 134.957 30.9548C134.957 30.8741 134.931 30.8314 134.881 30.8314ZM135.868 25.9244C135.816 25.9244 135.792 25.96 135.792 26.0288C135.792 26.0929 135.816 26.1237 135.868 26.1237C135.925 26.1237 135.954 26.0929 135.954 26.0288C135.954 25.96 135.925 25.9244 135.868 25.9244ZM136.106 25.1746C136.08 25.1508 136.068 25.1627 136.068 25.2125C136.068 25.2647 136.08 25.2766 136.106 25.2505C136.129 25.2505 136.144 25.2386 136.144 25.2125C136.144 25.1888 136.129 25.1746 136.106 25.1746ZM136.979 22.8777C137.029 22.6689 137.102 22.4079 137.197 22.0899C137.292 21.7743 137.401 21.5204 137.529 21.3306C137.529 21.3638 137.529 21.4326 137.529 21.5394C137.529 21.6414 137.529 21.7174 137.529 21.7672C137.503 21.9262 137.444 22.1445 137.349 22.4221C137.259 22.7021 137.202 22.854 137.178 22.8777L136.979 22.9536C136.979 22.9536 136.979 22.9417 136.979 22.9156C136.979 22.8919 136.979 22.8777 136.979 22.8777ZM137.729 20.5808C137.786 20.372 137.871 20.0849 137.985 19.7171C138.104 19.3445 138.165 19.1571 138.165 19.1571L138.289 19.0432C138.289 19.0693 138.289 19.1239 138.289 19.2045C138.289 19.2805 138.289 19.3327 138.289 19.3564C138.255 19.5154 138.18 19.7456 138.061 20.0493C137.947 20.353 137.876 20.531 137.852 20.5808L137.729 20.6662C137.729 20.6662 137.729 20.6543 137.729 20.6282C137.729 20.5974 137.729 20.5808 137.729 20.5808ZM138.289 14.4494C138.232 14.4494 138.203 14.485 138.203 14.5538C138.203 14.6179 138.232 14.6487 138.289 14.6487C138.338 14.6487 138.365 14.6179 138.365 14.5538C138.365 14.485 138.338 14.4494 138.289 14.4494ZM155.221 5.14794C155.169 5.14794 155.145 5.19065 155.145 5.27133C155.145 5.34726 155.169 5.38522 155.221 5.38522C155.271 5.38522 155.297 5.34726 155.297 5.27133C155.297 5.19065 155.271 5.14794 155.221 5.14794ZM157.319 4.83473C157.319 4.7849 157.29 4.7588 157.233 4.7588C157.181 4.7588 157.169 4.7849 157.195 4.83473C157.195 4.91777 157.236 4.91777 157.319 4.83473ZM159.141 4.28423C159.115 4.28423 159.103 4.31982 159.103 4.38863C159.103 4.4527 159.115 4.48355 159.141 4.48355C159.191 4.48355 159.217 4.4527 159.217 4.38863C159.217 4.31982 159.191 4.28423 159.141 4.28423ZM156.408 4.28423C156.431 4.22728 156.419 4.19881 156.37 4.19881C156.317 4.19881 156.306 4.22728 156.332 4.28423C156.332 4.31033 156.343 4.3222 156.37 4.3222C156.393 4.3222 156.408 4.31033 156.408 4.28423ZM160.679 3.96153C160.626 3.96153 160.603 3.99712 160.603 4.06593C160.603 4.13 160.626 4.16084 160.679 4.16084C160.736 4.16084 160.764 4.13 160.764 4.06593C160.764 3.99712 160.736 3.96153 160.679 3.96153ZM159.056 3.28764C159.056 3.23781 159.037 3.21171 158.999 3.21171C158.961 3.21171 158.942 3.23781 158.942 3.28764C158.942 3.32086 158.954 3.3351 158.98 3.3351C159.003 3.3351 159.03 3.32086 159.056 3.28764ZM162.776 2.73715V2.86054L162.862 2.73715H162.776Z" fill="white"/>
<path d="M145.528 37.7979C145.502 37.7979 145.447 37.7979 145.367 37.7979C145.291 37.7979 145.21 37.7979 145.129 37.7979C144.864 37.7979 144.638 37.7457 144.455 37.6366C144.273 37.5868 143.986 37.4444 143.592 37.2095C143.193 36.9698 142.97 36.837 142.918 36.8108C142.887 36.78 142.747 36.6281 142.5 36.3553C142.249 36.0776 142.054 35.8712 141.921 35.7383C141.921 35.7146 141.909 35.6766 141.883 35.6244C141.86 35.5675 141.845 35.5272 141.845 35.501C141.822 35.4204 141.784 35.2424 141.731 34.9695C141.675 34.6919 141.634 34.5116 141.608 34.4285C141.691 34.3787 141.746 34.3028 141.769 34.2007C141.796 34.094 141.822 34.0109 141.845 33.954C142.453 32.8221 143.364 31.994 144.579 31.4672C144.603 31.4435 144.707 31.4245 144.892 31.4103C145.075 31.3913 145.179 31.37 145.205 31.3439C145.262 31.3201 145.481 31.2395 145.86 31.1066C146.245 30.9737 146.463 30.8954 146.515 30.8693C146.565 30.8195 146.688 30.7886 146.885 30.7744C147.087 30.7625 147.201 30.7435 147.227 30.7174C147.277 30.7174 147.35 30.6866 147.445 30.6225C147.54 30.5537 147.588 30.5063 147.588 30.4802C147.664 30.3734 147.621 30.129 147.464 29.7493C147.305 29.3649 147.134 28.9758 146.952 28.5819C146.767 28.1833 146.66 27.9436 146.629 27.8606C146.603 27.8368 146.565 27.7253 146.515 27.5284C146.463 27.3338 146.423 27.2223 146.392 27.1962C146.366 27.1155 146.261 26.9352 146.078 26.6552C145.893 26.3775 145.711 26.1023 145.528 25.8294C145.343 25.5518 145.224 25.3881 145.167 25.3359C145.115 25.203 144.999 24.9254 144.816 24.5006C144.631 24.0783 144.524 23.8149 144.493 23.7129C144.493 23.6559 144.467 23.4851 144.417 23.2003C144.368 22.9108 144.323 22.5881 144.285 22.2322C144.242 21.8715 144.194 21.601 144.142 21.416C144.119 21.359 144.104 21.2736 144.104 21.1597C144.104 21.0411 144.156 20.9675 144.256 20.9414C144.546 20.1251 144.826 19.4275 145.091 18.8438C145.357 18.2625 145.739 17.6432 146.24 16.9835L149.011 14.6107C149.087 14.5538 149.27 14.4636 149.562 14.3355C149.851 14.2026 150.169 14.0697 150.511 13.9368C150.853 13.8039 151.102 13.7138 151.261 13.6616C151.341 13.6378 151.574 13.5928 151.954 13.5287C152.338 13.4599 152.753 13.3934 153.197 13.3294C153.645 13.2606 153.978 13.2131 154.194 13.187C154.718 13.187 155.114 13.2345 155.38 13.3294C155.646 13.4195 155.999 13.6094 156.443 13.8989C156.576 13.9748 156.702 14.0792 156.823 14.2121C156.941 14.3449 157.081 14.4375 157.24 14.4873C157.264 14.5704 157.309 14.7507 157.373 15.0283C157.442 15.3012 157.489 15.4792 157.515 15.5598C157.515 15.5598 157.527 15.6025 157.553 15.6832C157.577 15.7592 157.603 15.7971 157.629 15.7971C157.629 15.9063 157.641 16.1578 157.667 16.5564C157.698 16.9503 157.739 17.171 157.791 17.2208C157.814 17.5127 157.715 17.8354 157.487 18.1889C157.264 18.5448 157.117 18.8296 157.041 19.0431C157.015 19.0692 156.967 19.195 156.899 19.4228C156.834 19.6458 156.789 19.7811 156.766 19.8309C156.74 19.9401 156.654 20.1204 156.509 20.3719C156.362 20.6187 156.263 20.7682 156.206 20.818L156.443 20.9414C156.341 20.9936 156.116 21.1122 155.769 21.3021C155.427 21.4872 155.219 21.6153 155.143 21.6912C155.117 21.7173 155.05 21.7363 154.943 21.7482C154.834 21.7624 154.756 21.7671 154.706 21.7671H152.969C152.86 21.8763 152.741 21.9285 152.608 21.9285C152.476 21.9285 152.347 21.8905 152.229 21.8146C152.115 21.7339 151.992 21.639 151.859 21.5299C151.674 21.3472 151.669 21.1099 151.84 20.818C152.011 20.5285 152.146 20.3316 152.248 20.2296C152.328 20.1489 152.547 19.9163 152.903 19.5367C153.263 19.1523 153.534 18.896 153.719 18.7679C153.719 18.7679 153.762 18.737 153.852 18.673C153.947 18.6042 154.006 18.5686 154.032 18.5686C154.082 18.5116 154.156 18.4404 154.25 18.3503C154.345 18.2554 154.393 18.2079 154.393 18.2079C154.417 18.1842 154.436 18.1272 154.45 18.0371C154.462 17.9422 154.481 17.8828 154.507 17.8567C154.53 17.8259 154.616 17.7049 154.763 17.4961C154.908 17.2873 154.993 17.171 155.019 17.1449C155.043 17.0879 155.095 16.9432 155.171 16.7083C155.252 16.4686 155.309 16.3096 155.342 16.2337C155.418 16.0771 155.494 15.9063 155.57 15.7212C155.65 15.5314 155.575 15.37 155.342 15.2371C155.259 15.1873 155.164 15.1304 155.057 15.0663C154.955 14.9975 154.839 14.9619 154.706 14.9619C154.573 14.9619 154.469 15.0165 154.393 15.1232C154.36 15.1493 154.253 15.2632 154.07 15.4649C153.885 15.6619 153.769 15.7734 153.719 15.7971C153.161 16.2219 152.604 16.6324 152.048 17.031C151.498 17.4249 150.919 17.9754 150.312 18.6825C149.728 19.4228 149.249 20.2628 148.869 21.1977C148.489 22.1349 148.29 23.0722 148.271 24.0071C148.257 24.9444 148.503 25.7962 149.011 26.5602C149.585 27.7182 150.001 28.5416 150.255 29.028C150.506 29.5168 150.665 29.8063 150.729 29.9012C150.791 29.9961 150.824 30.0436 150.824 30.0436C151.114 29.9107 151.327 29.792 151.46 29.6829C151.593 29.5761 151.787 29.4124 152.048 29.1893C152.314 28.9687 152.801 28.6199 153.51 28.1453C154.224 27.6707 155.309 26.985 156.766 26.0857L159.414 23.7129C159.521 23.6061 159.653 23.5515 159.812 23.5515C159.995 23.5515 160.173 23.6132 160.344 23.7318C160.515 23.8457 160.612 23.9834 160.638 24.14C160.695 24.6976 160.657 25.0962 160.524 25.3359C160.391 25.5708 160.211 25.7725 159.983 25.9433C159.76 26.1142 159.504 26.3586 159.214 26.6741L155.219 28.9331C154.35 29.5405 153.7 29.9653 153.263 30.2049C152.827 30.4398 152.499 30.5846 152.286 30.6415C152.077 30.6937 151.892 30.7507 151.735 30.8123C151.576 30.8764 151.339 31.0544 151.023 31.3439C151.237 31.8754 151.346 32.2811 151.346 32.5587C151.346 32.8316 151.37 33.1923 151.422 33.6408C151.422 33.7499 151.422 33.9682 151.422 34.2957C151.422 34.6255 151.422 34.8438 151.422 34.9506C151.396 34.9767 151.275 35.1356 151.061 35.4251C150.853 35.717 150.682 35.9543 150.549 36.137C150.523 36.1631 150.482 36.2105 150.425 36.2793C150.373 36.3434 150.35 36.3742 150.35 36.3742C150.323 36.3742 150.257 36.3742 150.15 36.3742C150.048 36.3742 149.984 36.3742 149.96 36.3742C149.927 36.4004 149.865 36.4549 149.771 36.5356C149.68 36.6115 149.623 36.6637 149.6 36.6875C149.491 36.7397 149.31 36.8441 149.059 37.0007C148.812 37.1597 148.556 37.3186 148.29 37.4752C148.029 37.6342 147.846 37.741 147.739 37.7979C147.637 37.8501 147.514 37.881 147.369 37.8929C147.222 37.9071 147.085 37.9118 146.952 37.9118C146.686 37.9118 146.425 37.9 146.173 37.8739C145.927 37.8501 145.711 37.824 145.528 37.7979ZM144.579 36.3742C144.712 36.4004 144.925 36.4265 145.224 36.4502C145.528 36.4763 145.775 36.4881 145.965 36.4881C146.014 36.4881 146.045 36.4881 146.059 36.4881C146.071 36.4881 146.09 36.4881 146.116 36.4881C146.173 36.4644 146.404 36.36 146.809 36.1749C147.22 35.9922 147.531 35.8475 147.739 35.7383C147.896 35.6624 148.062 35.5343 148.233 35.3492C148.404 35.1594 148.503 34.96 148.537 34.7512C148.587 34.4618 148.584 34.177 148.527 33.897C148.475 33.6194 148.425 33.3228 148.375 33.0048C148.375 32.9811 148.375 32.955 148.375 32.9289C148.375 32.9052 148.375 32.8909 148.375 32.8909C148.349 32.7581 148.309 32.5754 148.252 32.3404C148.2 32.1008 148.176 31.9561 148.176 31.9038C148.176 31.8232 148.138 31.7805 148.062 31.7805C147.979 31.8066 147.858 31.835 147.701 31.8659C147.542 31.892 147.426 31.9038 147.35 31.9038C147.108 31.8232 146.869 31.7805 146.629 31.7805C146.553 31.8066 146.368 31.8659 146.078 31.9608C145.787 32.051 145.604 32.1221 145.528 32.1791C145.502 32.2052 145.416 32.2645 145.272 32.3594C145.125 32.4496 145.025 32.5065 144.968 32.5303C144.968 32.5303 144.949 32.5303 144.911 32.5303C144.873 32.5303 144.854 32.5303 144.854 32.5303L143.155 33.6408C143.124 33.6669 143.065 33.7452 142.975 33.878C142.88 34.0109 142.832 34.1153 142.832 34.1913C142.783 34.4333 142.856 34.7465 143.051 35.1309C143.248 35.5105 143.454 35.7549 143.668 35.8617C143.744 35.9139 143.91 36.0112 144.161 36.1559C144.415 36.3031 144.553 36.3742 144.579 36.3742Z" fill="white"/>
</svg>
