<svg width="67" height="58" viewBox="0 0 67 58" fill="none" xmlns="http://www.w3.org/2000/svg">
<mask id="mask0_119_29" style="mask-type:luminance" maskUnits="userSpaceOnUse" x="0" y="0" width="67" height="58">
<path d="M0.473145 0H66.6869V58H0.473145V0Z" fill="white"/>
</mask>
<g mask="url(#mask0_119_29)">
<mask id="mask1_119_29" style="mask-type:luminance" maskUnits="userSpaceOnUse" x="0" y="0" width="67" height="59">
<path d="M3.09387 9.38577C-2.2665 18.2185 1.51076 26.8147 6.25607 31.3768L34.0072 58.0008L61.1714 31.4717C65.5865 26.5646 67.2779 21.358 66.3379 15.5604C65.0396 7.54193 58.4317 1.32049 50.2688 0.431324C45.2615 -0.10752 40.4252 1.30979 36.6507 4.44659C35.6345 5.29029 34.7266 6.23427 33.935 7.25981C32.9964 6.09254 31.8946 5.02421 30.6498 4.07755C26.3096 0.777629 20.7835 -0.531376 15.4766 0.487482C10.4492 1.4582 5.93785 4.70063 3.09387 9.38577Z" fill="white"/>
</mask>
<g mask="url(#mask1_119_29)">
<path d="M0.473145 0.148193H66.6869V57.9998H0.473145V0.148193Z" fill="#FF5FB0"/>
</g>
</g>
</svg>
