<svg width="68" height="58" viewBox="0 0 68 58" fill="none" xmlns="http://www.w3.org/2000/svg">
<mask id="mask0_119_39" style="mask-type:luminance" maskUnits="userSpaceOnUse" x="0" y="0" width="68" height="58">
<path d="M0.890625 0H67.1043V58H0.890625V0Z" fill="white"/>
</mask>
<g mask="url(#mask0_119_39)">
<mask id="mask1_119_39" style="mask-type:luminance" maskUnits="userSpaceOnUse" x="0" y="0" width="68" height="59">
<path d="M3.51135 9.38577C-1.84902 18.2185 1.92824 26.8147 6.67355 31.3768L34.4247 58.0008L61.5889 31.4717C66.004 26.5646 67.6954 21.358 66.7554 15.5604C65.4571 7.54193 58.8492 1.32049 50.6863 0.431324C45.6789 -0.10752 40.8427 1.30979 37.0681 4.44659C36.0519 5.29029 35.1441 6.23427 34.3525 7.25981C33.4139 6.09254 32.3121 5.02421 31.0673 4.07755C26.7271 0.777629 21.201 -0.531376 15.8941 0.487482C10.8666 1.4582 6.35533 4.70063 3.51135 9.38577Z" fill="white"/>
</mask>
<g mask="url(#mask1_119_39)">
<path d="M0.890625 0.148193H67.1043V57.9998H0.890625V0.148193Z" fill="#B50000"/>
</g>
</g>
</svg>
