<svg width="130" height="95" viewBox="0 0 130 95" fill="none" xmlns="http://www.w3.org/2000/svg">
<mask id="mask0_85_159" style="mask-type:luminance" maskUnits="userSpaceOnUse" x="0" y="40" width="5" height="15">
<path d="M0.11731 40.1853H4.13121V54.9188H0.11731V40.1853Z" fill="white"/>
</mask>
<g mask="url(#mask0_85_159)">
<path d="M2.14642 40.1868C1.06443 40.1868 0.184692 41.0649 0.184692 42.1485V52.9405C0.184692 54.0241 1.06443 54.9022 2.14642 54.9022C3.22842 54.9022 4.10651 54.0241 4.10651 52.9405V42.1485C4.10651 41.0649 3.22842 40.1868 2.14642 40.1868Z" fill="#830067"/>
</g>
<path d="M12.5827 23.3254C11.4991 23.3254 10.621 24.2035 10.621 25.2855V69.8035C10.621 70.8872 11.4991 71.7636 12.5827 71.7636C13.6647 71.7636 14.5428 70.8872 14.5428 69.8035V25.2855C14.5428 24.2035 13.6647 23.3254 12.5827 23.3254Z" fill="#830067"/>
<path d="M22.9943 30.2959C21.9106 30.2959 21.0325 31.1723 21.0325 32.256V62.833C21.0325 63.9167 21.9106 64.7931 22.9943 64.7931C24.0779 64.7931 24.9544 63.9167 24.9544 62.833V32.256C24.9544 31.1723 24.0779 30.2959 22.9943 30.2959Z" fill="#830067"/>
<mask id="mask1_85_159" style="mask-type:luminance" maskUnits="userSpaceOnUse" x="62" y="0" width="5" height="95">
<path d="M62.679 0.769531H66.6008V94.2223H62.679V0.769531Z" fill="white"/>
</mask>
<g mask="url(#mask1_85_159)">
<path d="M64.6406 0.77124C63.557 0.77124 62.6789 1.64769 62.6789 2.73297V92.3576C62.6789 93.4413 63.557 94.3194 64.6406 94.3194C65.7226 94.3194 66.6007 93.4413 66.6007 92.3576V2.73297C66.6007 1.64769 65.7226 0.77124 64.6406 0.77124Z" fill="#830067"/>
</g>
<path d="M54.2291 28.7666C53.1455 28.7666 52.2674 29.6447 52.2674 30.7267V64.3623C52.2674 65.4442 53.1455 66.3223 54.2291 66.3223C55.3111 66.3223 56.1892 65.4442 56.1892 64.3623V30.7267C56.1892 29.6447 55.3111 28.7666 54.2291 28.7666Z" fill="#830067"/>
<path d="M43.8175 19.7458C42.7339 19.7458 41.8558 20.6239 41.8558 21.7076V73.3819C41.8558 74.4672 42.7339 75.3436 43.8175 75.3436C44.8995 75.3436 45.7776 74.4672 45.7776 73.3819V21.7076C45.7776 20.6239 44.8995 19.7458 43.8175 19.7458Z" fill="#830067"/>
<path d="M75.0507 28.7666C73.9687 28.7666 73.0906 29.6447 73.0906 30.7267V64.3623C73.0906 65.4442 73.9687 66.3223 75.0507 66.3223C76.1343 66.3223 77.0124 65.4442 77.0124 64.3623V30.7267C77.0124 29.6447 76.1343 28.7666 75.0507 28.7666Z" fill="#830067"/>
<path d="M85.4623 19.7458C84.3803 19.7458 83.5022 20.6239 83.5022 21.7076V73.3819C83.5022 74.4672 84.3803 75.3436 85.4623 75.3436C86.5459 75.3436 87.424 74.4672 87.424 73.3819V21.7076C87.424 20.6239 86.5459 19.7458 85.4623 19.7458Z" fill="#830067"/>
<mask id="mask2_85_159" style="mask-type:luminance" maskUnits="userSpaceOnUse" x="125" y="40" width="5" height="15">
<path d="M125.149 40.1853H129.133V54.9188H125.149V40.1853Z" fill="white"/>
</mask>
<g mask="url(#mask2_85_159)">
<path d="M127.128 40.1868C126.046 40.1868 125.168 41.0649 125.168 42.1485V52.9405C125.168 54.0241 126.046 54.9022 127.128 54.9022C128.212 54.9022 129.09 54.0241 129.09 52.9405V42.1485C129.09 41.0649 128.212 40.1868 127.128 40.1868Z" fill="#830067"/>
</g>
<path d="M116.697 23.3254C115.615 23.3254 114.737 24.2035 114.737 25.2855V69.8035C114.737 70.8872 115.615 71.7636 116.697 71.7636C117.781 71.7636 118.659 70.8872 118.659 69.8035V25.2855C118.659 24.2035 117.781 23.3254 116.697 23.3254Z" fill="#830067"/>
<path d="M106.285 30.2959C105.203 30.2959 104.325 31.1723 104.325 32.256V62.833C104.325 63.9167 105.203 64.7931 106.285 64.7931C107.369 64.7931 108.247 63.9167 108.247 62.833V32.256C108.247 31.1723 107.369 30.2959 106.285 30.2959Z" fill="#830067"/>
<path d="M33.4059 11.8577C32.3222 11.8577 31.4442 12.7358 31.4442 13.8194V81.2698C31.4442 82.3534 32.3222 83.2315 33.4059 83.2315C34.4879 83.2315 35.366 82.3534 35.366 81.2698V13.8194C35.366 12.7358 34.4879 11.8577 33.4059 11.8577Z" fill="#830067"/>
<path d="M95.8739 11.8577C94.7919 11.8577 93.9138 12.7358 93.9138 13.8194V81.2698C93.9138 82.3534 94.7919 83.2315 95.8739 83.2315C96.9575 83.2315 97.8356 82.3534 97.8356 81.2698V13.8194C97.8356 12.7358 96.9575 11.8577 95.8739 11.8577Z" fill="#830067"/>
</svg>
