<svg width="34" height="33" viewBox="0 0 34 33" fill="none" xmlns="http://www.w3.org/2000/svg">
<path d="M29.6373 -0.00830078H4.1417C2.2223 -0.00830078 0.665039 1.54896 0.665039 3.46836V28.9639C0.665039 30.8833 2.2223 32.4406 4.1417 32.4406H29.6373C31.5567 32.4406 33.1139 30.8833 33.1139 28.9639V3.46836C33.1139 1.54896 31.5567 -0.00830078 29.6373 -0.00830078ZM26.0954 11.4937C26.1099 11.6965 26.1099 11.9065 26.1099 12.1093C26.1099 18.3891 21.3295 25.6249 12.5943 25.6249C9.89993 25.6249 7.40108 24.8426 5.30059 23.4954C5.68447 23.5389 6.05387 23.5533 6.445 23.5533C8.66861 23.5533 10.7112 22.8001 12.3408 21.5253C10.2548 21.4818 8.50202 20.1129 7.90085 18.2297C8.6324 18.3384 9.29152 18.3384 10.0448 18.1428C7.87188 17.701 6.24219 15.7888 6.24219 13.4783V13.4203C6.87234 13.7752 7.61113 13.9925 8.38613 14.0215C7.73457 13.5881 7.20043 13.0001 6.83139 12.3101C6.46235 11.62 6.26988 10.8493 6.27116 10.0668C6.27116 9.18313 6.50294 8.37191 6.91579 7.66934C9.2553 10.5521 12.7682 12.4353 16.7084 12.6381C16.0348 9.41491 18.4467 6.80017 21.344 6.80017C22.7129 6.80017 23.9442 7.37237 24.8134 8.29948C25.8853 8.09667 26.9139 7.69831 27.8265 7.15508C27.4716 8.25602 26.7255 9.18313 25.7405 9.76982C26.6966 9.66842 27.6237 9.40042 28.4784 9.03103C27.8337 9.97987 27.0225 10.8201 26.0954 11.4937Z" fill="white"/>
</svg>
